<svg width="420" height="184" viewBox="0 0 420 184" fill="none" xmlns="http://www.w3.org/2000/svg">
<path d="M324 38V132.947C324 145.679 313.679 156 300.947 156H225" stroke="white" stroke-width="0.6" stroke-linecap="round" stroke-dasharray="5.76 5.76"/>
<path d="M97 36V132.947C97 145.679 107.321 156 120.053 156H196" stroke="white" stroke-width="0.6" stroke-linecap="round" stroke-dasharray="5.76 5.76"/>
<rect x="0.3" y="0.3" width="193.416" height="35.7779" rx="7.7" fill="black" stroke="white" stroke-width="0.6"/>
<path d="M16.6042 22.0001H14.0838V14.2147H16.6841C17.4469 14.2147 18.102 14.3706 18.6494 14.6823C19.1968 14.9915 19.6163 15.4362 19.9077 16.0166C20.2017 16.5944 20.3487 17.2876 20.3487 18.096C20.3487 18.907 20.2004 19.6039 19.9039 20.1868C19.6099 20.7697 19.1842 21.2183 18.6266 21.5325C18.0691 21.8443 17.3949 22.0001 16.6042 22.0001ZM15.2585 20.9737H16.5396C17.1326 20.9737 17.6256 20.8622 18.0184 20.6392C18.4112 20.4136 18.7052 20.088 18.9003 19.6622C19.0955 19.2339 19.193 18.7118 19.193 18.096C19.193 17.4852 19.0955 16.967 18.9003 16.5412C18.7077 16.1154 18.4201 15.7923 18.0374 15.5718C17.6547 15.3513 17.1795 15.2411 16.6118 15.2411H15.2585V20.9737ZM23.4174 22.1294C23.0474 22.1294 22.7129 22.0609 22.4138 21.9241C22.1148 21.7847 21.8778 21.5832 21.703 21.3197C21.5306 21.0561 21.4445 20.733 21.4445 20.3503C21.4445 20.0208 21.5078 19.7496 21.6345 19.5368C21.7613 19.3239 21.9323 19.1553 22.1477 19.0312C22.3632 18.907 22.6039 18.8132 22.87 18.7499C23.1361 18.6865 23.4073 18.6383 23.6835 18.6054C24.0333 18.5649 24.3171 18.5319 24.5351 18.5066C24.753 18.4787 24.9114 18.4343 25.0102 18.3735C25.1091 18.3127 25.1585 18.2138 25.1585 18.077V18.0504C25.1585 17.7184 25.0647 17.4612 24.8772 17.2787C24.6922 17.0962 24.4159 17.005 24.0485 17.005C23.6658 17.005 23.3642 17.0899 23.1437 17.2597C22.9258 17.4269 22.775 17.6132 22.6913 17.8185L21.6231 17.5752C21.7498 17.2204 21.9349 16.934 22.1781 16.7161C22.424 16.4956 22.7066 16.3359 23.0259 16.2371C23.3452 16.1357 23.681 16.085 24.0333 16.085C24.2664 16.085 24.5135 16.1129 24.7746 16.1687C25.0381 16.2219 25.284 16.3207 25.512 16.4652C25.7427 16.6096 25.9315 16.8162 26.0785 17.0848C26.2255 17.3509 26.2989 17.6968 26.2989 18.1226V22.0001H25.1889V21.2018H25.1433C25.0698 21.3488 24.9596 21.4933 24.8126 21.6352C24.6656 21.7771 24.4768 21.8949 24.2461 21.9887C24.0155 22.0825 23.7393 22.1294 23.4174 22.1294ZM23.6645 21.217C23.9788 21.217 24.2474 21.1549 24.4704 21.0307C24.696 20.9066 24.8671 20.7444 24.9836 20.5442C25.1027 20.3414 25.1623 20.1247 25.1623 19.8941V19.1414C25.1218 19.182 25.0432 19.22 24.9266 19.2555C24.8126 19.2884 24.6821 19.3175 24.5351 19.3429C24.3881 19.3657 24.2449 19.3872 24.1055 19.4075C23.9661 19.4253 23.8495 19.4405 23.7558 19.4531C23.5353 19.481 23.3338 19.5279 23.1513 19.5938C22.9714 19.6597 22.8269 19.7547 22.718 19.8789C22.6115 20.0005 22.5583 20.1627 22.5583 20.3655C22.5583 20.6468 22.6622 20.8597 22.87 21.0041C23.0778 21.1461 23.3427 21.217 23.6645 21.217ZM30.5385 16.1611V17.0734H27.3491V16.1611H30.5385ZM28.2044 14.7621H29.3411V20.2857C29.3411 20.5061 29.374 20.6721 29.4399 20.7836C29.5058 20.8926 29.5907 20.9674 29.6946 21.0079C29.8011 21.046 29.9164 21.065 30.0406 21.065C30.1318 21.065 30.2116 21.0586 30.28 21.046C30.3485 21.0333 30.4017 21.0231 30.4397 21.0155L30.645 21.9545C30.5791 21.9798 30.4853 22.0052 30.3637 22.0305C30.242 22.0584 30.09 22.0736 29.9075 22.0762C29.6085 22.0812 29.3297 22.028 29.0712 21.9165C28.8127 21.805 28.6036 21.6326 28.4439 21.3995C28.2843 21.1663 28.2044 20.8736 28.2044 20.5213V14.7621ZM33.4951 22.1294C33.1251 22.1294 32.7906 22.0609 32.4916 21.9241C32.1925 21.7847 31.9555 21.5832 31.7807 21.3197C31.6083 21.0561 31.5222 20.733 31.5222 20.3503C31.5222 20.0208 31.5855 19.7496 31.7123 19.5368C31.839 19.3239 32.01 19.1553 32.2255 19.0312C32.4409 18.907 32.6816 18.8132 32.9477 18.7499C33.2138 18.6865 33.485 18.6383 33.7612 18.6054C34.111 18.5649 34.3948 18.5319 34.6128 18.5066C34.8307 18.4787 34.9891 18.4343 35.088 18.3735C35.1868 18.3127 35.2362 18.2138 35.2362 18.077V18.0504C35.2362 17.7184 35.1425 17.4612 34.9549 17.2787C34.7699 17.0962 34.4937 17.005 34.1262 17.005C33.7435 17.005 33.4419 17.0899 33.2214 17.2597C33.0035 17.4269 32.8527 17.6132 32.7691 17.8185L31.7008 17.5752C31.8276 17.2204 32.0126 16.934 32.2559 16.7161C32.5017 16.4956 32.7843 16.3359 33.1036 16.2371C33.4229 16.1357 33.7587 16.085 34.111 16.085C34.3441 16.085 34.5912 16.1129 34.8523 16.1687C35.1158 16.2219 35.3617 16.3207 35.5898 16.4652C35.8204 16.6096 36.0092 16.8162 36.1562 17.0848C36.3032 17.3509 36.3767 17.6968 36.3767 18.1226V22.0001H35.2666V21.2018H35.221C35.1475 21.3488 35.0373 21.4933 34.8903 21.6352C34.7433 21.7771 34.5545 21.8949 34.3239 21.9887C34.0932 22.0825 33.817 22.1294 33.4951 22.1294ZM33.7422 21.217C34.0565 21.217 34.3251 21.1549 34.5482 21.0307C34.7737 20.9066 34.9448 20.7444 35.0614 20.5442C35.1805 20.3414 35.24 20.1247 35.24 19.8941V19.1414C35.1995 19.182 35.1209 19.22 35.0043 19.2555C34.8903 19.2884 34.7598 19.3175 34.6128 19.3429C34.4658 19.3657 34.3226 19.3872 34.1832 19.4075C34.0438 19.4253 33.9272 19.4405 33.8335 19.4531C33.613 19.481 33.4115 19.5279 33.229 19.5938C33.0491 19.6597 32.9046 19.7547 32.7957 19.8789C32.6892 20.0005 32.636 20.1627 32.636 20.3655C32.636 20.6468 32.7399 20.8597 32.9477 21.0041C33.1555 21.1461 33.4204 21.217 33.7422 21.217ZM43.4493 16.1611V17.0734H40.2599V16.1611H43.4493ZM41.1152 14.7621H42.2519V20.2857C42.2519 20.5061 42.2848 20.6721 42.3507 20.7836C42.4166 20.8926 42.5015 20.9674 42.6054 21.0079C42.7118 21.046 42.8271 21.065 42.9513 21.065C43.0426 21.065 43.1224 21.0586 43.1908 21.046C43.2592 21.0333 43.3125 21.0231 43.3505 21.0155L43.5558 21.9545C43.4899 21.9798 43.3961 22.0052 43.2744 22.0305C43.1528 22.0584 43.0007 22.0736 42.8183 22.0762C42.5192 22.0812 42.2404 22.028 41.9819 21.9165C41.7234 21.805 41.5144 21.6326 41.3547 21.3995C41.195 21.1663 41.1152 20.8736 41.1152 20.5213V14.7621ZM44.7067 22.0001V16.1611H45.8053V17.0886H45.8661C45.9725 16.7744 46.1601 16.5273 46.4287 16.3473C46.6999 16.1649 47.0065 16.0736 47.3487 16.0736C47.4196 16.0736 47.5033 16.0762 47.5996 16.0812C47.6984 16.0863 47.7757 16.0926 47.8315 16.1002V17.1875C47.7859 17.1748 47.7048 17.1608 47.5882 17.1456C47.4716 17.1279 47.355 17.119 47.2384 17.119C46.9698 17.119 46.7303 17.176 46.52 17.2901C46.3121 17.4016 46.1474 17.5575 46.0258 17.7577C45.9041 17.9553 45.8433 18.1809 45.8433 18.4343V22.0001H44.7067ZM50.4621 22.1294C50.0921 22.1294 49.7576 22.0609 49.4585 21.9241C49.1595 21.7847 48.9225 21.5832 48.7476 21.3197C48.5753 21.0561 48.4891 20.733 48.4891 20.3503C48.4891 20.0208 48.5525 19.7496 48.6792 19.5368C48.8059 19.3239 48.977 19.1553 49.1924 19.0312C49.4078 18.907 49.6486 18.8132 49.9147 18.7499C50.1808 18.6865 50.452 18.6383 50.7282 18.6054C51.0779 18.5649 51.3618 18.5319 51.5797 18.5066C51.7977 18.4787 51.9561 18.4343 52.0549 18.3735C52.1538 18.3127 52.2032 18.2138 52.2032 18.077V18.0504C52.2032 17.7184 52.1094 17.4612 51.9219 17.2787C51.7369 17.0962 51.4606 17.005 51.0931 17.005C50.7105 17.005 50.4089 17.0899 50.1884 17.2597C49.9704 17.4269 49.8196 17.6132 49.736 17.8185L48.6678 17.5752C48.7945 17.2204 48.9795 16.934 49.2228 16.7161C49.4686 16.4956 49.7512 16.3359 50.0705 16.2371C50.3899 16.1357 50.7257 16.085 51.0779 16.085C51.3111 16.085 51.5582 16.1129 51.8192 16.1687C52.0828 16.2219 52.3286 16.3207 52.5567 16.4652C52.7873 16.6096 52.9761 16.8162 53.1231 17.0848C53.2701 17.3509 53.3436 17.6968 53.3436 18.1226V22.0001H52.2336V21.2018H52.188C52.1145 21.3488 52.0042 21.4933 51.8572 21.6352C51.7102 21.7771 51.5214 21.8949 51.2908 21.9887C51.0602 22.0825 50.784 22.1294 50.4621 22.1294ZM50.7092 21.217C51.0234 21.217 51.2921 21.1549 51.5151 21.0307C51.7407 20.9066 51.9117 20.7444 52.0283 20.5442C52.1474 20.3414 52.207 20.1247 52.207 19.8941V19.1414C52.1664 19.182 52.0879 19.22 51.9713 19.2555C51.8572 19.2884 51.7267 19.3175 51.5797 19.3429C51.4327 19.3657 51.2896 19.3872 51.1502 19.4075C51.0108 19.4253 50.8942 19.4405 50.8004 19.4531C50.5799 19.481 50.3785 19.5279 50.196 19.5938C50.0161 19.6597 49.8716 19.7547 49.7626 19.8789C49.6562 20.0005 49.603 20.1627 49.603 20.3655C49.603 20.6468 49.7069 20.8597 49.9147 21.0041C50.1225 21.1461 50.3873 21.217 50.7092 21.217ZM57.3171 22.118C56.752 22.118 56.2654 21.99 55.8573 21.734C55.4519 21.4755 55.1401 21.1194 54.9222 20.6658C54.7042 20.2122 54.5953 19.6926 54.5953 19.1072C54.5953 18.5142 54.7068 17.9908 54.9298 17.5372C55.1528 17.081 55.4671 16.7249 55.8725 16.469C56.278 16.213 56.7558 16.085 57.3057 16.085C57.7492 16.085 58.1446 16.1674 58.4918 16.3321C58.839 16.4943 59.119 16.7224 59.3319 17.0164C59.5473 17.3104 59.6753 17.6538 59.7158 18.0466H58.6096C58.5488 17.7729 58.4094 17.5372 58.1914 17.3395C57.976 17.1418 57.6871 17.043 57.3247 17.043C57.0079 17.043 56.7304 17.1266 56.4922 17.2939C56.2565 17.4586 56.0728 17.6943 55.941 18.001C55.8092 18.3051 55.7433 18.665 55.7433 19.0806C55.7433 19.5064 55.8079 19.8738 55.9372 20.183C56.0664 20.4922 56.2489 20.7317 56.4846 20.9015C56.7228 21.0713 57.0029 21.1562 57.3247 21.1562C57.5401 21.1562 57.7353 21.1169 57.9101 21.0383C58.0875 20.9572 58.2358 20.8419 58.3549 20.6924C58.4766 20.5429 58.5615 20.363 58.6096 20.1526H59.7158C59.6753 20.5302 59.5524 20.8673 59.3471 21.1638C59.1418 21.4603 58.8668 21.6935 58.5222 21.8633C58.18 22.0331 57.7784 22.118 57.3171 22.118ZM61.9768 20.0196L61.9692 18.632H62.1668L64.4933 16.1611H65.8543L63.2008 18.9741H63.0222L61.9768 20.0196ZM60.9314 22.0001V14.2147H62.068V22.0001H60.9314ZM64.6188 22.0001L62.528 19.225L63.3111 18.4305L66.0139 22.0001H64.6188ZM66.8902 22.0001V16.1611H68.0268V22.0001H66.8902ZM67.4642 15.2601C67.2665 15.2601 67.0967 15.1942 66.9548 15.0624C66.8154 14.9281 66.7457 14.7684 66.7457 14.5834C66.7457 14.3959 66.8154 14.2362 66.9548 14.1045C67.0967 13.9701 67.2665 13.903 67.4642 13.903C67.6619 13.903 67.8304 13.9701 67.9698 14.1045C68.1117 14.2362 68.1827 14.3959 68.1827 14.5834C68.1827 14.7684 68.1117 14.9281 67.9698 15.0624C67.8304 15.1942 67.6619 15.2601 67.4642 15.2601ZM70.6926 18.5332V22.0001H69.556V16.1611H70.647V17.1114H70.7192C70.8535 16.8022 71.0639 16.5539 71.3503 16.3663C71.6392 16.1788 72.0029 16.085 72.4413 16.085C72.8392 16.085 73.1876 16.1687 73.4867 16.3359C73.7857 16.5007 74.0176 16.7465 74.1824 17.0734C74.3471 17.4003 74.4295 17.8046 74.4295 18.2861V22.0001H73.2928V18.4229C73.2928 17.9997 73.1826 17.669 72.9621 17.4307C72.7416 17.19 72.4388 17.0696 72.0535 17.0696C71.79 17.0696 71.5555 17.1266 71.3503 17.2407C71.1475 17.3547 70.9866 17.522 70.8675 17.7425C70.7509 17.9604 70.6926 18.224 70.6926 18.5332ZM78.402 24.3114C77.9382 24.3114 77.5391 24.2506 77.2045 24.1289C76.8725 24.0073 76.6014 23.8464 76.391 23.6462C76.1807 23.446 76.0235 23.2267 75.9196 22.9885L76.8966 22.5855C76.965 22.6971 77.0563 22.8149 77.1703 22.9391C77.2869 23.0658 77.444 23.1735 77.6417 23.2622C77.8419 23.3509 78.0992 23.3953 78.4134 23.3953C78.8442 23.3953 79.2003 23.2901 79.4816 23.0797C79.7629 22.8719 79.9036 22.5399 79.9036 22.0838V20.9357H79.8314C79.7629 21.0599 79.6641 21.198 79.5348 21.3501C79.4081 21.5021 79.2333 21.6339 79.0102 21.7454C78.7872 21.8569 78.497 21.9127 78.1397 21.9127C77.6785 21.9127 77.2628 21.805 76.8928 21.5896C76.5253 21.3716 76.2339 21.051 76.0185 20.6278C75.8056 20.202 75.6992 19.6787 75.6992 19.0578C75.6992 18.4369 75.8043 17.9047 76.0147 17.4612C76.2276 17.0177 76.519 16.6781 76.889 16.4424C77.259 16.2041 77.6785 16.085 78.1473 16.085C78.5097 16.085 78.8024 16.1458 79.0254 16.2675C79.2485 16.3866 79.4221 16.526 79.5463 16.6857C79.673 16.8453 79.7705 16.986 79.839 17.1076H79.9226V16.1611H81.0364V22.1294C81.0364 22.6312 80.9199 23.043 80.6867 23.3649C80.4535 23.6867 80.138 23.9249 79.7401 24.0795C79.3448 24.2341 78.8987 24.3114 78.402 24.3114ZM78.3906 20.9699C78.7175 20.9699 78.9938 20.8939 79.2193 20.7418C79.4474 20.5872 79.6197 20.3668 79.7363 20.0804C79.8554 19.7915 79.915 19.4455 79.915 19.0426C79.915 18.6498 79.8567 18.3038 79.7401 18.0048C79.6235 17.7057 79.4525 17.4726 79.2269 17.3053C79.0014 17.1355 78.7226 17.0506 78.3906 17.0506C78.0485 17.0506 77.7634 17.1393 77.5353 17.3167C77.3072 17.4916 77.1348 17.7298 77.0183 18.0314C76.9042 18.333 76.8472 18.67 76.8472 19.0426C76.8472 19.4253 76.9055 19.7611 77.0221 20.05C77.1386 20.3389 77.311 20.5644 77.5391 20.7266C77.7697 20.8888 78.0535 20.9699 78.3906 20.9699Z" fill="white"/>
<path d="M181.338 15.4803L176.791 20.0276L174.724 17.9607" stroke="white" stroke-width="0.8" stroke-linecap="round" stroke-linejoin="round"/>
<rect x="0.3" y="73.3" width="193.416" height="35.7779" rx="7.7" fill="black" stroke="white" stroke-width="0.6"/>
<path d="M15.6082 94.0001L13.449 86.2147H14.6845L16.2013 92.2438H16.2735L17.8511 86.2147H19.0752L20.6528 92.2476H20.725L22.238 86.2147H23.4773L21.3143 94.0001H20.132L18.4936 88.1687H18.4327L16.7943 94.0001H15.6082ZM26.3987 94.118C25.8234 94.118 25.328 93.9951 24.9124 93.7492C24.4993 93.5009 24.1799 93.1524 23.9544 92.7038C23.7314 92.2527 23.6199 91.7243 23.6199 91.1186C23.6199 90.5205 23.7314 89.9934 23.9544 89.5372C24.1799 89.081 24.4942 88.7249 24.8972 88.469C25.3026 88.213 25.7766 88.085 26.3189 88.085C26.6484 88.085 26.9677 88.1395 27.2769 88.2485C27.5861 88.3575 27.8636 88.5285 28.1094 88.7617C28.3552 88.9948 28.5491 89.2977 28.691 89.6702C28.833 90.0402 28.9039 90.4901 28.9039 91.0198V91.4227H24.2623V90.5712H27.7901C27.7901 90.2721 27.7293 90.0073 27.6076 89.7767C27.486 89.5435 27.3149 89.3598 27.0944 89.2255C26.8765 89.0911 26.6205 89.024 26.3265 89.024C26.0072 89.024 25.7284 89.1026 25.4902 89.2597C25.2545 89.4143 25.072 89.617 24.9428 89.8679C24.8161 90.1163 24.7527 90.3862 24.7527 90.6776V91.3429C24.7527 91.7332 24.8211 92.0652 24.958 92.3389C25.0974 92.6126 25.2912 92.8217 25.5396 92.9661C25.788 93.108 26.0781 93.179 26.4101 93.179C26.6256 93.179 26.822 93.1486 26.9994 93.0878C27.1768 93.0244 27.3301 92.9306 27.4593 92.8065C27.5886 92.6823 27.6874 92.5289 27.7559 92.3465L28.8317 92.5404C28.7455 92.8571 28.5909 93.1347 28.3679 93.3729C28.1474 93.6086 27.8699 93.7923 27.5354 93.9241C27.2034 94.0533 26.8245 94.118 26.3987 94.118ZM30.2563 94.0001V86.2147H31.3929V89.1076H31.4614C31.5272 88.986 31.6223 88.8453 31.7465 88.6857C31.8706 88.526 32.043 88.3866 32.2635 88.2675C32.484 88.1458 32.7754 88.085 33.1378 88.085C33.6092 88.085 34.0299 88.2041 34.3999 88.4424C34.7699 88.6806 35.0601 89.024 35.2704 89.4726C35.4833 89.9211 35.5898 90.4609 35.5898 91.092C35.5898 91.723 35.4846 92.2641 35.2742 92.7152C35.0639 93.1638 34.775 93.5097 34.4075 93.753C34.04 93.9938 33.6206 94.1142 33.1492 94.1142C32.7944 94.1142 32.5042 94.0546 32.2787 93.9355C32.0557 93.8164 31.8808 93.677 31.7541 93.5173C31.6274 93.3577 31.5298 93.2158 31.4614 93.0916H31.3663V94.0001H30.2563ZM31.3701 91.0806C31.3701 91.4911 31.4297 91.851 31.5488 92.1602C31.6679 92.4694 31.8402 92.7114 32.0658 92.8863C32.2913 93.0586 32.5676 93.1448 32.8945 93.1448C33.2341 93.1448 33.518 93.0548 33.746 92.8749C33.9741 92.6924 34.1465 92.4453 34.263 92.1336C34.3822 91.8219 34.4417 91.4709 34.4417 91.0806C34.4417 90.6954 34.3834 90.3494 34.2668 90.0428C34.1528 89.7361 33.9805 89.4941 33.7498 89.3167C33.5218 89.1393 33.2366 89.0506 32.8945 89.0506C32.5651 89.0506 32.2863 89.1355 32.0582 89.3053C31.8326 89.4751 31.6616 89.7121 31.545 90.0162C31.4284 90.3203 31.3701 90.6751 31.3701 91.0806ZM42.3108 94.0001H39.7904V86.2147H42.3906C43.1534 86.2147 43.8086 86.3706 44.356 86.6823C44.9034 86.9915 45.3228 87.4362 45.6143 88.0166C45.9082 88.5944 46.0552 89.2876 46.0552 90.096C46.0552 90.907 45.907 91.6039 45.6105 92.1868C45.3165 92.7697 44.8907 93.2183 44.3332 93.5325C43.7756 93.8443 43.1015 94.0001 42.3108 94.0001ZM40.9651 92.9737H42.2462C42.8392 92.9737 43.3321 92.8622 43.7249 92.6392C44.1177 92.4136 44.4117 92.088 44.6069 91.6622C44.802 91.2339 44.8996 90.7118 44.8996 90.096C44.8996 89.4852 44.802 88.967 44.6069 88.5412C44.4143 88.1154 44.1266 87.7923 43.7439 87.5718C43.3613 87.3513 42.8861 87.2411 42.3184 87.2411H40.9651V92.9737ZM49.9413 94.118C49.366 94.118 48.8705 93.9951 48.4549 93.7492C48.0418 93.5009 47.7225 93.1524 47.4969 92.7038C47.2739 92.2527 47.1624 91.7243 47.1624 91.1186C47.1624 90.5205 47.2739 89.9934 47.4969 89.5372C47.7225 89.081 48.0367 88.7249 48.4397 88.469C48.8452 88.213 49.3191 88.085 49.8615 88.085C50.1909 88.085 50.5102 88.1395 50.8194 88.2485C51.1286 88.3575 51.4061 88.5285 51.652 88.7617C51.8978 88.9948 52.0917 89.2977 52.2336 89.6702C52.3755 90.0402 52.4465 90.4901 52.4465 91.0198V91.4227H47.8049V90.5712H51.3326C51.3326 90.2721 51.2718 90.0073 51.1502 89.7767C51.0285 89.5435 50.8574 89.3598 50.637 89.2255C50.419 89.0911 50.163 89.024 49.8691 89.024C49.5497 89.024 49.271 89.1026 49.0327 89.2597C48.797 89.4143 48.6146 89.617 48.4853 89.8679C48.3586 90.1163 48.2952 90.3862 48.2952 90.6776V91.3429C48.2952 91.7332 48.3637 92.0652 48.5005 92.3389C48.6399 92.6126 48.8338 92.8217 49.0822 92.9661C49.3305 93.108 49.6207 93.179 49.9527 93.179C50.1681 93.179 50.3645 93.1486 50.5419 93.0878C50.7193 93.0244 50.8727 92.9306 51.0019 92.8065C51.1312 92.6823 51.23 92.5289 51.2984 92.3465L52.3742 92.5404C52.2881 92.8571 52.1335 93.1347 51.9105 93.3729C51.69 93.6086 51.4125 93.7923 51.0779 93.9241C50.7459 94.0533 50.3671 94.118 49.9413 94.118ZM58.5355 88.1611L56.4181 94.0001H55.2016L53.0804 88.1611H54.3006L55.7794 92.6544H55.8402L57.3152 88.1611H58.5355ZM61.9217 94.118C61.3464 94.118 60.8509 93.9951 60.4353 93.7492C60.0222 93.5009 59.7029 93.1524 59.4773 92.7038C59.2543 92.2527 59.1428 91.7243 59.1428 91.1186C59.1428 90.5205 59.2543 89.9934 59.4773 89.5372C59.7029 89.081 60.0171 88.7249 60.4201 88.469C60.8256 88.213 61.2995 88.085 61.8418 88.085C62.1713 88.085 62.4906 88.1395 62.7998 88.2485C63.109 88.3575 63.3865 88.5285 63.6323 88.7617C63.8781 88.9948 64.072 89.2977 64.2139 89.6702C64.3559 90.0402 64.4268 90.4901 64.4268 91.0198V91.4227H59.7852V90.5712H63.313C63.313 90.2721 63.2522 90.0073 63.1305 89.7767C63.0089 89.5435 62.8378 89.3598 62.6173 89.2255C62.3994 89.0911 62.1434 89.024 61.8494 89.024C61.5301 89.024 61.2513 89.1026 61.0131 89.2597C60.7774 89.4143 60.5949 89.617 60.4657 89.8679C60.339 90.1163 60.2756 90.3862 60.2756 90.6776V91.3429C60.2756 91.7332 60.344 92.0652 60.4809 92.3389C60.6203 92.6126 60.8142 92.8217 61.0625 92.9661C61.3109 93.108 61.6011 93.179 61.9331 93.179C62.1485 93.179 62.3449 93.1486 62.5223 93.0878C62.6997 93.0244 62.853 92.9306 62.9823 92.8065C63.1115 92.6823 63.2104 92.5289 63.2788 92.3465L64.3546 92.5404C64.2684 92.8571 64.1138 93.1347 63.8908 93.3729C63.6703 93.6086 63.3928 93.7923 63.0583 93.9241C62.7263 94.0533 62.3474 94.118 61.9217 94.118ZM66.8246 86.2147V94.0001H65.688V86.2147H66.8246ZM70.8133 94.118C70.2659 94.118 69.7882 93.9925 69.3801 93.7416C68.9721 93.4907 68.6553 93.1397 68.4298 92.6886C68.2042 92.2375 68.0914 91.7104 68.0914 91.1072C68.0914 90.5015 68.2042 89.9718 68.4298 89.5182C68.6553 89.0645 68.9721 88.7123 69.3801 88.4614C69.7882 88.2105 70.2659 88.085 70.8133 88.085C71.3607 88.085 71.8384 88.2105 72.2465 88.4614C72.6545 88.7123 72.9713 89.0645 73.1968 89.5182C73.4224 89.9718 73.5352 90.5015 73.5352 91.1072C73.5352 91.7104 73.4224 92.2375 73.1968 92.6886C72.9713 93.1397 72.6545 93.4907 72.2465 93.7416C71.8384 93.9925 71.3607 94.118 70.8133 94.118ZM70.8171 93.1638C71.1719 93.1638 71.4659 93.07 71.6991 92.8825C71.9322 92.6949 72.1045 92.4453 72.2161 92.1336C72.3301 91.8219 72.3871 91.4785 72.3871 91.1034C72.3871 90.7309 72.3301 90.3887 72.2161 90.077C72.1045 89.7627 71.9322 89.5106 71.6991 89.3205C71.4659 89.1304 71.1719 89.0354 70.8171 89.0354C70.4598 89.0354 70.1633 89.1304 69.9276 89.3205C69.6944 89.5106 69.5208 89.7627 69.4068 90.077C69.2952 90.3887 69.2395 90.7309 69.2395 91.1034C69.2395 91.4785 69.2952 91.8219 69.4068 92.1336C69.5208 92.4453 69.6944 92.6949 69.9276 92.8825C70.1633 93.07 70.4598 93.1638 70.8171 93.1638ZM74.8039 96.1898V88.1611H75.9139V89.1076H76.009C76.0749 88.986 76.1699 88.8453 76.2941 88.6857C76.4183 88.526 76.5906 88.3866 76.8111 88.2675C77.0316 88.1458 77.323 88.085 77.6854 88.085C78.1568 88.085 78.5775 88.2041 78.9475 88.4424C79.3175 88.6806 79.6077 89.024 79.8181 89.4726C80.0309 89.9211 80.1374 90.4609 80.1374 91.092C80.1374 91.723 80.0322 92.2641 79.8219 92.7152C79.6115 93.1638 79.3226 93.5097 78.9551 93.753C78.5876 93.9938 78.1682 94.1142 77.6968 94.1142C77.342 94.1142 77.0519 94.0546 76.8263 93.9355C76.6033 93.8164 76.4284 93.677 76.3017 93.5173C76.175 93.3577 76.0774 93.2158 76.009 93.0916H75.9406V96.1898H74.8039ZM75.9177 91.0806C75.9177 91.4911 75.9773 91.851 76.0964 92.1602C76.2155 92.4694 76.3879 92.7114 76.6134 92.8863C76.839 93.0586 77.1152 93.1448 77.4421 93.1448C77.7817 93.1448 78.0656 93.0548 78.2937 92.8749C78.5218 92.6924 78.6941 92.4453 78.8107 92.1336C78.9298 91.8219 78.9893 91.4709 78.9893 91.0806C78.9893 90.6954 78.931 90.3494 78.8145 90.0428C78.7004 89.7361 78.5281 89.4941 78.2975 89.3167C78.0694 89.1393 77.7843 89.0506 77.4421 89.0506C77.1127 89.0506 76.8339 89.1355 76.6058 89.3053C76.3803 89.4751 76.2092 89.7121 76.0926 90.0162C75.976 90.3203 75.9177 90.6751 75.9177 91.0806ZM81.4109 94.0001V88.1611H82.5019V89.1114H82.5741C82.6958 88.7896 82.8947 88.5387 83.171 88.3587C83.4472 88.1763 83.7779 88.085 84.1631 88.085C84.5534 88.085 84.8804 88.1763 85.1439 88.3587C85.41 88.5412 85.6064 88.7921 85.7332 89.1114H85.794C85.9334 88.7997 86.1551 88.5513 86.4592 88.3663C86.7634 88.1788 87.1258 88.085 87.5465 88.085C88.0761 88.085 88.5082 88.251 88.8428 88.583C89.1798 88.915 89.3484 89.4155 89.3484 90.0846V94.0001H88.2117V90.191C88.2117 89.7957 88.104 89.5093 87.8886 89.3319C87.6732 89.1545 87.4159 89.0658 87.1169 89.0658C86.7469 89.0658 86.4592 89.1798 86.254 89.4079C86.0487 89.6335 85.946 89.9237 85.946 90.2785V94.0001H84.8132V90.1188C84.8132 89.802 84.7144 89.5473 84.5167 89.3547C84.319 89.1621 84.0618 89.0658 83.745 89.0658C83.5296 89.0658 83.3306 89.1228 83.1482 89.2369C82.9682 89.3484 82.8225 89.5042 82.711 89.7045C82.602 89.9047 82.5475 90.1366 82.5475 90.4001V94.0001H81.4109ZM93.3884 94.118C92.8131 94.118 92.3176 93.9951 91.902 93.7492C91.4889 93.5009 91.1696 93.1524 90.944 92.7038C90.721 92.2527 90.6095 91.7243 90.6095 91.1186C90.6095 90.5205 90.721 89.9934 90.944 89.5372C91.1696 89.081 91.4838 88.7249 91.8868 88.469C92.2923 88.213 92.7662 88.085 93.3086 88.085C93.638 88.085 93.9573 88.1395 94.2665 88.2485C94.5757 88.3575 94.8532 88.5285 95.0991 88.7617C95.3449 88.9948 95.5388 89.2977 95.6807 89.6702C95.8226 90.0402 95.8936 90.4901 95.8936 91.0198V91.4227H91.252V90.5712H94.7797C94.7797 90.2721 94.7189 90.0073 94.5973 89.7767C94.4756 89.5435 94.3045 89.3598 94.0841 89.2255C93.8661 89.0911 93.6101 89.024 93.3162 89.024C92.9968 89.024 92.7181 89.1026 92.4798 89.2597C92.2441 89.4143 92.0617 89.617 91.9324 89.8679C91.8057 90.1163 91.7423 90.3862 91.7423 90.6776V91.3429C91.7423 91.7332 91.8108 92.0652 91.9476 92.3389C92.087 92.6126 92.2809 92.8217 92.5293 92.9661C92.7776 93.108 93.0678 93.179 93.3998 93.179C93.6152 93.179 93.8116 93.1486 93.989 93.0878C94.1664 93.0244 94.3197 92.9306 94.449 92.8065C94.5783 92.6823 94.6771 92.5289 94.7455 92.3465L95.8213 92.5404C95.7352 92.8571 95.5806 93.1347 95.3576 93.3729C95.1371 93.6086 94.8596 93.7923 94.525 93.9241C94.193 94.0533 93.8142 94.118 93.3884 94.118ZM98.2913 90.5332V94.0001H97.1547V88.1611H98.2457V89.1114H98.318C98.4523 88.8022 98.6626 88.5539 98.949 88.3663C99.2379 88.1788 99.6016 88.085 100.04 88.085C100.438 88.085 100.786 88.1687 101.085 88.3359C101.384 88.5007 101.616 88.7465 101.781 89.0734C101.946 89.4003 102.028 89.8046 102.028 90.2861V94.0001H100.892V90.4229C100.892 89.9997 100.781 89.669 100.561 89.4307C100.34 89.19 100.037 89.0696 99.6523 89.0696C99.3887 89.0696 99.1543 89.1266 98.949 89.2407C98.7463 89.3547 98.5853 89.522 98.4662 89.7425C98.3496 89.9604 98.2913 90.224 98.2913 90.5332ZM106.278 88.1611V89.0734H103.089V88.1611H106.278ZM103.944 86.7621H105.081V92.2857C105.081 92.5061 105.114 92.6721 105.18 92.7836C105.246 92.8926 105.33 92.9674 105.434 93.0079C105.541 93.046 105.656 93.065 105.78 93.065C105.871 93.065 105.951 93.0586 106.02 93.046C106.088 93.0333 106.141 93.0231 106.179 93.0155L106.385 93.9545C106.319 93.9798 106.225 94.0052 106.103 94.0305C105.982 94.0584 105.83 94.0736 105.647 94.0762C105.348 94.0812 105.069 94.028 104.811 93.9165C104.552 93.805 104.343 93.6326 104.184 93.3995C104.024 93.1663 103.944 92.8736 103.944 92.5213V86.7621Z" fill="white"/>
<path d="M181.338 88.4803L176.791 93.0276L174.724 90.9607" stroke="white" stroke-width="0.8" stroke-linecap="round" stroke-linejoin="round"/>
<rect x="226.284" y="0.3" width="193.416" height="35.7779" rx="7.7" fill="black" stroke="white" stroke-width="0.6"/>
<path d="M245.075 14.2147H246.253V19.3353C246.253 19.8802 246.125 20.363 245.869 20.7836C245.613 21.2018 245.253 21.5313 244.79 21.772C244.326 22.0103 243.782 22.1294 243.159 22.1294C242.538 22.1294 241.996 22.0103 241.532 21.772C241.068 21.5313 240.708 21.2018 240.452 20.7836C240.196 20.363 240.068 19.8802 240.068 19.3353V14.2147H241.243V19.2402C241.243 19.5925 241.32 19.9055 241.475 20.1792C241.632 20.4529 241.854 20.6683 242.14 20.8255C242.426 20.9801 242.766 21.0574 243.159 21.0574C243.554 21.0574 243.895 20.9801 244.181 20.8255C244.47 20.6683 244.691 20.4529 244.843 20.1792C244.997 19.9055 245.075 19.5925 245.075 19.2402V14.2147ZM249.136 14.2147V22.0001H247.961V14.2147H249.136ZM253.72 13.8498L251.211 23.171H250.196L252.705 13.8498H253.72ZM259.784 14.2147H260.962V19.3353C260.962 19.8802 260.834 20.363 260.578 20.7836C260.322 21.2018 259.962 21.5313 259.499 21.772C259.035 22.0103 258.491 22.1294 257.868 22.1294C257.247 22.1294 256.704 22.0103 256.241 21.772C255.777 21.5313 255.417 21.2018 255.161 20.7836C254.905 20.363 254.777 19.8802 254.777 19.3353V14.2147H255.952V19.2402C255.952 19.5925 256.029 19.9055 256.184 20.1792C256.341 20.4529 256.563 20.6683 256.849 20.8255C257.135 20.9801 257.475 21.0574 257.868 21.0574C258.263 21.0574 258.604 20.9801 258.89 20.8255C259.179 20.6683 259.4 20.4529 259.552 20.1792C259.706 19.9055 259.784 19.5925 259.784 19.2402V14.2147ZM263.487 14.2147L265.35 17.2597H265.411L267.274 14.2147H268.634L266.209 18.1074L268.65 22.0001H267.281L265.411 18.997H265.35L263.48 22.0001H262.111L264.593 18.1074L262.126 14.2147H263.487ZM275.153 22.0001H272.633V14.2147H275.233C275.996 14.2147 276.651 14.3706 277.198 14.6823C277.746 14.9915 278.165 15.4362 278.457 16.0166C278.75 16.5944 278.897 17.2876 278.897 18.096C278.897 18.907 278.749 19.6039 278.453 20.1868C278.159 20.7697 277.733 21.2183 277.175 21.5325C276.618 21.8443 275.944 22.0001 275.153 22.0001ZM273.807 20.9737H275.088C275.681 20.9737 276.174 20.8622 276.567 20.6392C276.96 20.4136 277.254 20.088 277.449 19.6622C277.644 19.2339 277.742 18.7118 277.742 18.096C277.742 17.4852 277.644 16.967 277.449 16.5412C277.257 16.1154 276.969 15.7923 276.586 15.5718C276.203 15.3513 275.728 15.2411 275.161 15.2411H273.807V20.9737ZM282.784 22.118C282.208 22.118 281.713 21.9951 281.297 21.7492C280.884 21.5009 280.565 21.1524 280.339 20.7038C280.116 20.2527 280.005 19.7243 280.005 19.1186C280.005 18.5205 280.116 17.9934 280.339 17.5372C280.565 17.081 280.879 16.7249 281.282 16.469C281.687 16.213 282.161 16.085 282.704 16.085C283.033 16.085 283.352 16.1395 283.662 16.2485C283.971 16.3575 284.248 16.5285 284.494 16.7617C284.74 16.9948 284.934 17.2977 285.076 17.6702C285.218 18.0402 285.289 18.4901 285.289 19.0198V19.4227H280.647V18.5712H284.175C284.175 18.2721 284.114 18.0073 283.992 17.7767C283.871 17.5435 283.7 17.3598 283.479 17.2255C283.261 17.0911 283.005 17.024 282.711 17.024C282.392 17.024 282.113 17.1026 281.875 17.2597C281.639 17.4143 281.457 17.617 281.328 17.8679C281.201 18.1163 281.137 18.3862 281.137 18.6776V19.3429C281.137 19.7332 281.206 20.0652 281.343 20.3389C281.482 20.6126 281.676 20.8217 281.924 20.9661C282.173 21.108 282.463 21.179 282.795 21.179C283.01 21.179 283.207 21.1486 283.384 21.0878C283.562 21.0244 283.715 20.9306 283.844 20.8065C283.973 20.6823 284.072 20.5289 284.141 20.3465L285.216 20.5404C285.13 20.8571 284.976 21.1347 284.753 21.3729C284.532 21.6086 284.255 21.7923 283.92 21.9241C283.588 22.0533 283.209 22.118 282.784 22.118ZM290.925 17.5866L289.895 17.7691C289.852 17.6373 289.784 17.5118 289.69 17.3927C289.599 17.2736 289.474 17.176 289.317 17.1C289.16 17.024 288.964 16.986 288.728 16.986C288.406 16.986 288.138 17.0582 287.922 17.2027C287.707 17.3446 287.599 17.5283 287.599 17.7539C287.599 17.949 287.671 18.1061 287.816 18.2253C287.96 18.3444 288.193 18.4419 288.515 18.518L289.443 18.7309C289.98 18.855 290.38 19.0464 290.644 19.3049C290.908 19.5634 291.039 19.8992 291.039 20.3123C291.039 20.662 290.938 20.9737 290.735 21.2474C290.535 21.5186 290.255 21.7315 289.895 21.8861C289.538 22.0407 289.123 22.118 288.652 22.118C287.998 22.118 287.465 21.9786 287.052 21.6998C286.639 21.4185 286.385 21.0193 286.291 20.5023L287.39 20.3351C287.458 20.6215 287.599 20.8381 287.812 20.9851C288.025 21.1296 288.302 21.2018 288.644 21.2018C289.017 21.2018 289.315 21.1245 289.538 20.9699C289.761 20.8128 289.872 20.6215 289.872 20.3959C289.872 20.2134 289.804 20.0601 289.667 19.9359C289.533 19.8117 289.326 19.718 289.047 19.6546L288.059 19.4379C287.514 19.3137 287.111 19.1161 286.85 18.8449C286.592 18.5737 286.462 18.2303 286.462 17.8147C286.462 17.47 286.559 17.1684 286.751 16.9099C286.944 16.6514 287.21 16.45 287.55 16.3055C287.889 16.1585 288.278 16.085 288.717 16.085C289.348 16.085 289.844 16.2219 290.207 16.4956C290.569 16.7668 290.809 17.1304 290.925 17.5866ZM292.289 22.0001V16.1611H293.426V22.0001H292.289ZM292.863 15.2601C292.665 15.2601 292.496 15.1942 292.354 15.0624C292.214 14.9281 292.145 14.7684 292.145 14.5834C292.145 14.3959 292.214 14.2362 292.354 14.1045C292.496 13.9701 292.665 13.903 292.863 13.903C293.061 13.903 293.229 13.9701 293.369 14.1045C293.511 14.2362 293.582 14.3959 293.582 14.5834C293.582 14.7684 293.511 14.9281 293.369 15.0624C293.229 15.1942 293.061 15.2601 292.863 15.2601ZM297.403 24.3114C296.939 24.3114 296.54 24.2506 296.206 24.1289C295.874 24.0073 295.602 23.8464 295.392 23.6462C295.182 23.446 295.025 23.2267 294.921 22.9885L295.898 22.5855C295.966 22.6971 296.057 22.8149 296.171 22.9391C296.288 23.0658 296.445 23.1735 296.643 23.2622C296.843 23.3509 297.1 23.3953 297.414 23.3953C297.845 23.3953 298.201 23.2901 298.483 23.0797C298.764 22.8719 298.905 22.5399 298.905 22.0838V20.9357H298.832C298.764 21.0599 298.665 21.198 298.536 21.3501C298.409 21.5021 298.234 21.6339 298.011 21.7454C297.788 21.8569 297.498 21.9127 297.141 21.9127C296.68 21.9127 296.264 21.805 295.894 21.5896C295.526 21.3716 295.235 21.051 295.02 20.6278C294.807 20.202 294.7 19.6787 294.7 19.0578C294.7 18.4369 294.805 17.9047 295.016 17.4612C295.229 17.0177 295.52 16.6781 295.89 16.4424C296.26 16.2041 296.68 16.085 297.148 16.085C297.511 16.085 297.803 16.1458 298.027 16.2675C298.25 16.3866 298.423 16.526 298.547 16.6857C298.674 16.8453 298.772 16.986 298.84 17.1076H298.924V16.1611H300.037V22.1294C300.037 22.6312 299.921 23.043 299.688 23.3649C299.455 23.6867 299.139 23.9249 298.741 24.0795C298.346 24.2341 297.9 24.3114 297.403 24.3114ZM297.392 20.9699C297.719 20.9699 297.995 20.8939 298.22 20.7418C298.448 20.5872 298.621 20.3668 298.737 20.0804C298.856 19.7915 298.916 19.4455 298.916 19.0426C298.916 18.6498 298.858 18.3038 298.741 18.0048C298.625 17.7057 298.454 17.4726 298.228 17.3053C298.002 17.1355 297.724 17.0506 297.392 17.0506C297.05 17.0506 296.764 17.1393 296.536 17.3167C296.308 17.4916 296.136 17.7298 296.019 18.0314C295.905 18.333 295.848 18.67 295.848 19.0426C295.848 19.4253 295.907 19.7611 296.023 20.05C296.14 20.3389 296.312 20.5644 296.54 20.7266C296.771 20.8888 297.055 20.9699 297.392 20.9699ZM302.699 18.5332V22.0001H301.562V16.1611H302.653V17.1114H302.725C302.859 16.8022 303.07 16.5539 303.356 16.3663C303.645 16.1788 304.009 16.085 304.447 16.085C304.845 16.085 305.194 16.1687 305.493 16.3359C305.792 16.5007 306.024 16.7465 306.188 17.0734C306.353 17.4003 306.435 17.8046 306.435 18.2861V22.0001H305.299V18.4229C305.299 17.9997 305.188 17.669 304.968 17.4307C304.748 17.19 304.445 17.0696 304.059 17.0696C303.796 17.0696 303.561 17.1266 303.356 17.2407C303.153 17.3547 302.993 17.522 302.873 17.7425C302.757 17.9604 302.699 18.224 302.699 18.5332Z" fill="white"/>
<path d="M407.323 15.4803L402.776 20.0276L400.709 17.9607" stroke="white" stroke-width="0.8" stroke-linecap="round" stroke-linejoin="round"/>
<rect x="226.284" y="73.3" width="193.416" height="35.7779" rx="7.7" fill="black" stroke="white" stroke-width="0.6"/>
<path d="M239.684 87.2259V86.2147H245.71V87.2259H243.28V94.0001H242.11V87.2259H239.684ZM248.62 94.118C248.044 94.118 247.549 93.9951 247.133 93.7492C246.72 93.5009 246.401 93.1524 246.175 92.7038C245.952 92.2527 245.841 91.7243 245.841 91.1186C245.841 90.5205 245.952 89.9934 246.175 89.5372C246.401 89.081 246.715 88.7249 247.118 88.469C247.524 88.213 247.997 88.085 248.54 88.085C248.869 88.085 249.189 88.1395 249.498 88.2485C249.807 88.3575 250.084 88.5285 250.33 88.7617C250.576 88.9948 250.77 89.2977 250.912 89.6702C251.054 90.0402 251.125 90.4901 251.125 91.0198V91.4227H246.483V90.5712H250.011C250.011 90.2721 249.95 90.0073 249.829 89.7767C249.707 89.5435 249.536 89.3598 249.315 89.2255C249.097 89.0911 248.841 89.024 248.547 89.024C248.228 89.024 247.949 89.1026 247.711 89.2597C247.475 89.4143 247.293 89.617 247.164 89.8679C247.037 90.1163 246.974 90.3862 246.974 90.6776V91.3429C246.974 91.7332 247.042 92.0652 247.179 92.3389C247.318 92.6126 247.512 92.8217 247.761 92.9661C248.009 93.108 248.299 93.179 248.631 93.179C248.846 93.179 249.043 93.1486 249.22 93.0878C249.398 93.0244 249.551 92.9306 249.68 92.8065C249.81 92.6823 249.908 92.5289 249.977 92.3465L251.053 92.5404C250.966 92.8571 250.812 93.1347 250.589 93.3729C250.368 93.6086 250.091 93.7923 249.756 93.9241C249.424 94.0533 249.045 94.118 248.62 94.118ZM254.846 94.118C254.28 94.118 253.794 93.99 253.386 93.734C252.98 93.4755 252.669 93.1194 252.451 92.6658C252.233 92.2122 252.124 91.6926 252.124 91.1072C252.124 90.5142 252.235 89.9908 252.458 89.5372C252.681 89.081 252.995 88.7249 253.401 88.469C253.806 88.213 254.284 88.085 254.834 88.085C255.278 88.085 255.673 88.1674 256.02 88.3321C256.367 88.4943 256.647 88.7224 256.86 89.0164C257.076 89.3104 257.204 89.6538 257.244 90.0466H256.138C256.077 89.7729 255.938 89.5372 255.72 89.3395C255.504 89.1418 255.216 89.043 254.853 89.043C254.536 89.043 254.259 89.1266 254.021 89.2939C253.785 89.4586 253.601 89.6943 253.469 90.001C253.338 90.3051 253.272 90.665 253.272 91.0806C253.272 91.5064 253.336 91.8738 253.466 92.183C253.595 92.4922 253.777 92.7317 254.013 92.9015C254.251 93.0713 254.531 93.1562 254.853 93.1562C255.069 93.1562 255.264 93.1169 255.439 93.0383C255.616 92.9572 255.764 92.8419 255.883 92.6924C256.005 92.5429 256.09 92.363 256.138 92.1526H257.244C257.204 92.5302 257.081 92.8673 256.876 93.1638C256.67 93.4603 256.395 93.6935 256.051 93.8633C255.708 94.0331 255.307 94.118 254.846 94.118ZM259.596 90.5332V94.0001H258.46V86.2147H259.581V89.1114H259.653C259.79 88.7972 259.999 88.5475 260.281 88.3625C260.562 88.1775 260.929 88.085 261.383 88.085C261.784 88.085 262.133 88.1674 262.432 88.3321C262.734 88.4968 262.967 88.7427 263.132 89.0696C263.299 89.394 263.383 89.7995 263.383 90.2861V94.0001H262.246V90.4229C262.246 89.9946 262.136 89.6626 261.915 89.4269C261.695 89.1887 261.388 89.0696 260.995 89.0696C260.727 89.0696 260.486 89.1266 260.273 89.2407C260.063 89.3547 259.897 89.522 259.775 89.7425C259.656 89.9604 259.596 90.224 259.596 90.5332ZM266.036 90.5332V94.0001H264.899V88.1611H265.991V89.1114H266.063C266.197 88.8022 266.407 88.5539 266.694 88.3663C266.983 88.1788 267.346 88.085 267.785 88.085C268.183 88.085 268.531 88.1687 268.83 88.3359C269.129 88.5007 269.361 88.7465 269.526 89.0734C269.691 89.4003 269.773 89.8046 269.773 90.2861V94.0001H268.636V90.4229C268.636 89.9997 268.526 89.669 268.306 89.4307C268.085 89.19 267.782 89.0696 267.397 89.0696C267.133 89.0696 266.899 89.1266 266.694 89.2407C266.491 89.3547 266.33 89.522 266.211 89.7425C266.094 89.9604 266.036 90.224 266.036 90.5332ZM271.297 94.0001V88.1611H272.434V94.0001H271.297ZM271.871 87.2601C271.674 87.2601 271.504 87.1942 271.362 87.0624C271.223 86.9281 271.153 86.7684 271.153 86.5834C271.153 86.3959 271.223 86.2362 271.362 86.1045C271.504 85.9701 271.674 85.903 271.871 85.903C272.069 85.903 272.238 85.9701 272.377 86.1045C272.519 86.2362 272.59 86.3959 272.59 86.5834C272.59 86.7684 272.519 86.9281 272.377 87.0624C272.238 87.1942 272.069 87.2601 271.871 87.2601ZM276.423 94.118C275.858 94.118 275.371 93.99 274.963 93.734C274.557 93.4755 274.246 93.1194 274.028 92.6658C273.81 92.2122 273.701 91.6926 273.701 91.1072C273.701 90.5142 273.812 89.9908 274.035 89.5372C274.258 89.081 274.573 88.7249 274.978 88.469C275.384 88.213 275.861 88.085 276.411 88.085C276.855 88.085 277.25 88.1674 277.597 88.3321C277.945 88.4943 278.225 88.7224 278.437 89.0164C278.653 89.3104 278.781 89.6538 278.821 90.0466H277.715C277.654 89.7729 277.515 89.5372 277.297 89.3395C277.082 89.1418 276.793 89.043 276.43 89.043C276.114 89.043 275.836 89.1266 275.598 89.2939C275.362 89.4586 275.178 89.6943 275.047 90.001C274.915 90.3051 274.849 90.665 274.849 91.0806C274.849 91.5064 274.914 91.8738 275.043 92.183C275.172 92.4922 275.354 92.7317 275.59 92.9015C275.828 93.0713 276.108 93.1562 276.43 93.1562C276.646 93.1562 276.841 93.1169 277.016 93.0383C277.193 92.9572 277.341 92.8419 277.461 92.6924C277.582 92.5429 277.667 92.363 277.715 92.1526H278.821C278.781 92.5302 278.658 92.8673 278.453 93.1638C278.247 93.4603 277.972 93.6935 277.628 93.8633C277.286 94.0331 276.884 94.118 276.423 94.118ZM281.736 94.1294C281.366 94.1294 281.032 94.0609 280.733 93.9241C280.434 93.7847 280.197 93.5832 280.022 93.3197C279.849 93.0561 279.763 92.733 279.763 92.3503C279.763 92.0208 279.827 91.7496 279.953 91.5368C280.08 91.3239 280.251 91.1553 280.467 91.0312C280.682 90.907 280.923 90.8132 281.189 90.7499C281.455 90.6865 281.726 90.6383 282.002 90.6054C282.352 90.5649 282.636 90.5319 282.854 90.5066C283.072 90.4787 283.23 90.4343 283.329 90.3735C283.428 90.3127 283.477 90.2138 283.477 90.077V90.0504C283.477 89.7184 283.384 89.4612 283.196 89.2787C283.011 89.0962 282.735 89.005 282.367 89.005C281.985 89.005 281.683 89.0899 281.463 89.2597C281.245 89.4269 281.094 89.6132 281.01 89.8185L279.942 89.5752C280.069 89.2204 280.254 88.934 280.497 88.7161C280.743 88.4956 281.025 88.3359 281.345 88.2371C281.664 88.1357 282 88.085 282.352 88.085C282.585 88.085 282.832 88.1129 283.093 88.1687C283.357 88.2219 283.603 88.3207 283.831 88.4652C284.061 88.6096 284.25 88.8162 284.397 89.0848C284.544 89.3509 284.618 89.6968 284.618 90.1226V94.0001H283.508V93.2018H283.462C283.389 93.3488 283.278 93.4933 283.131 93.6352C282.984 93.7771 282.796 93.8949 282.565 93.9887C282.334 94.0825 282.058 94.1294 281.736 94.1294ZM281.983 93.217C282.298 93.217 282.566 93.1549 282.789 93.0307C283.015 92.9066 283.186 92.7444 283.302 92.5442C283.422 92.3414 283.481 92.1247 283.481 91.8941V91.1414C283.441 91.182 283.362 91.22 283.245 91.2555C283.131 91.2884 283.001 91.3175 282.854 91.3429C282.707 91.3657 282.564 91.3872 282.424 91.4075C282.285 91.4253 282.168 91.4405 282.075 91.4531C281.854 91.481 281.653 91.5279 281.47 91.5938C281.29 91.6597 281.146 91.7547 281.037 91.8789C280.93 92.0005 280.877 92.1627 280.877 92.3655C280.877 92.6468 280.981 92.8597 281.189 93.0041C281.397 93.1461 281.661 93.217 281.983 93.217ZM287.268 86.2147V94.0001H286.132V86.2147H287.268ZM295.968 88.2599C295.927 87.9 295.76 87.6212 295.466 87.4236C295.172 87.2234 294.802 87.1232 294.356 87.1232C294.037 87.1232 293.761 87.1739 293.527 87.2753C293.294 87.3741 293.113 87.511 292.984 87.6859C292.857 87.8582 292.794 88.0546 292.794 88.2751C292.794 88.4601 292.837 88.6198 292.923 88.7541C293.012 88.8884 293.127 89.0012 293.269 89.0924C293.413 89.1811 293.568 89.2559 293.733 89.3167C293.897 89.375 294.056 89.4231 294.208 89.4612L294.968 89.6588C295.217 89.7197 295.471 89.802 295.732 89.9059C295.993 90.0098 296.235 90.1467 296.458 90.3165C296.681 90.4863 296.861 90.6966 296.998 90.9475C297.138 91.1984 297.207 91.4987 297.207 91.8485C297.207 92.2895 297.093 92.681 296.865 93.0231C296.64 93.3653 296.311 93.6352 295.881 93.8329C295.452 94.0305 294.934 94.1294 294.326 94.1294C293.743 94.1294 293.239 94.0369 292.813 93.8519C292.387 93.6669 292.054 93.4046 291.813 93.065C291.572 92.7228 291.439 92.3173 291.414 91.8485H292.592C292.615 92.1298 292.706 92.3642 292.866 92.5518C293.028 92.7368 293.235 92.8749 293.486 92.9661C293.739 93.0548 294.017 93.0992 294.318 93.0992C294.65 93.0992 294.945 93.0472 295.204 92.9433C295.465 92.8369 295.67 92.6899 295.82 92.5023C295.969 92.3123 296.044 92.0905 296.044 91.8371C296.044 91.6065 295.978 91.4177 295.846 91.2707C295.717 91.1237 295.541 91.002 295.318 90.9057C295.097 90.8094 294.848 90.7245 294.569 90.651L293.649 90.4001C293.026 90.2303 292.531 89.9807 292.167 89.6512C291.804 89.3218 291.623 88.8859 291.623 88.3435C291.623 87.8949 291.745 87.5034 291.988 87.1689C292.231 86.8343 292.561 86.5746 292.976 86.3896C293.392 86.202 293.861 86.1083 294.383 86.1083C294.91 86.1083 295.375 86.2008 295.778 86.3858C296.183 86.5708 296.503 86.8255 296.736 87.1499C296.969 87.4717 297.091 87.8417 297.101 88.2599H295.968ZM298.611 94.0001V86.2147H303.492V87.2259H299.786V89.598H303.237V90.6054H299.786V92.9889H303.538V94.0001H298.611ZM311.824 90.1074C311.824 90.9387 311.672 91.6533 311.368 92.2514C311.064 92.847 310.647 93.3057 310.117 93.6276C309.59 93.9469 308.991 94.1066 308.319 94.1066C307.645 94.1066 307.043 93.9469 306.513 93.6276C305.986 93.3057 305.571 92.8457 305.266 92.2476C304.962 91.6495 304.81 90.9361 304.81 90.1074C304.81 89.2762 304.962 88.5627 305.266 87.9672C305.571 87.3691 305.986 86.9104 306.513 86.591C307.043 86.2692 307.645 86.1083 308.319 86.1083C308.991 86.1083 309.59 86.2692 310.117 86.591C310.647 86.9104 311.064 87.3691 311.368 87.9672C311.672 88.5627 311.824 89.2762 311.824 90.1074ZM310.661 90.1074C310.661 89.4738 310.558 88.9404 310.353 88.507C310.15 88.0711 309.871 87.7416 309.516 87.5186C309.164 87.293 308.765 87.1803 308.319 87.1803C307.87 87.1803 307.47 87.293 307.118 87.5186C306.765 87.7416 306.487 88.0711 306.281 88.507C306.079 88.9404 305.977 89.4738 305.977 90.1074C305.977 90.741 306.079 91.2757 306.281 91.7116C306.487 92.145 306.765 92.4745 307.118 92.7C307.47 92.923 307.87 93.0345 308.319 93.0345C308.765 93.0345 309.164 92.923 309.516 92.7C309.871 92.4745 310.15 92.145 310.353 91.7116C310.558 91.2757 310.661 90.741 310.661 90.1074Z" fill="white"/>
<path d="M407.323 88.4803L402.776 93.0276L400.709 90.9607" stroke="white" stroke-width="0.8" stroke-linecap="round" stroke-linejoin="round"/>
<path d="M194.016 18.7402L225.984 18.7402" stroke="white" stroke-width="0.6" stroke-linecap="round" stroke-dasharray="5.76 5.76"/>
<path d="M210.463 14.7298C208.297 14.7298 206.54 16.486 206.54 18.6522C206.54 20.8185 208.297 22.5746 210.463 22.5746C212.629 22.5746 214.385 20.8185 214.385 18.6522C214.385 16.486 212.629 14.7298 210.463 14.7298Z" fill="black" stroke="white" stroke-width="0.8"/>
<path d="M96.9198 51.2826C94.7535 51.2826 92.9974 53.0387 92.9974 55.205C92.9974 57.3712 94.7535 59.1273 96.9198 59.1273C99.0861 59.1273 100.842 57.3712 100.842 55.205C100.842 53.0387 99.0861 51.2826 96.9198 51.2826Z" fill="black" stroke="white" stroke-width="0.8"/>
<path d="M324.006 51.1087C321.839 51.1087 320.083 52.8649 320.083 55.0311C320.083 57.1974 321.839 58.9535 324.006 58.9535C326.172 58.9535 327.928 57.1974 327.928 55.0311C327.928 52.8649 326.172 51.1087 324.006 51.1087Z" fill="black" stroke="white" stroke-width="0.8"/>
<rect x="181.35" y="126.35" width="57.3" height="57.3" rx="7.65" fill="black" stroke="white" stroke-width="0.7"/>
<circle cx="206.572" cy="149.653" r="2.05645" fill="white"/>
<circle cx="213.702" cy="149.653" r="2.05645" fill="white"/>
<circle cx="206.572" cy="160.347" r="2.05645" fill="white"/>
<circle cx="213.428" cy="160.347" r="2.05645" fill="white"/>
<circle cx="216.443" cy="155.137" r="2.05645" fill="white"/>
<circle cx="203.831" cy="155.137" r="2.05645" fill="white"/>
<circle cx="198.073" cy="154.589" r="1.50806" fill="white"/>
<circle cx="200.266" cy="148.282" r="1.50806" fill="white"/>
<circle cx="205.476" cy="143.895" r="1.50806" fill="white"/>
<circle cx="212.057" cy="143.347" r="1.50806" fill="white"/>
<circle cx="218.089" cy="146.089" r="1.50806" fill="white"/>
<circle cx="221.654" cy="151.847" r="1.50806" fill="white"/>
<circle cx="221.379" cy="158.427" r="1.50806" fill="white"/>
<circle cx="217.54" cy="164.186" r="1.50806" fill="white"/>
<circle cx="211.508" cy="166.927" r="1.50806" fill="white"/>
<circle cx="204.654" cy="165.556" r="1.50806" fill="white"/>
<circle cx="199.992" cy="160.895" r="1.50806" fill="white"/>
<circle cx="200.266" cy="167.75" r="0.959677" fill="white"/>
<circle cx="204.653" cy="169.943" r="0.959677" fill="white"/>
<circle cx="209.589" cy="171.04" r="0.959677" fill="white"/>
<circle cx="214.524" cy="170.218" r="0.959677" fill="white"/>
<circle cx="219.185" cy="168.024" r="0.959677" fill="white"/>
<circle cx="222.75" cy="164.734" r="0.959677" fill="white"/>
<circle cx="196.975" cy="164.185" r="0.959677" fill="white"/>
<circle cx="194.782" cy="159.524" r="0.959677" fill="white"/>
<circle cx="193.96" cy="154.589" r="0.959677" fill="white"/>
<circle cx="195.056" cy="149.653" r="0.959677" fill="white"/>
<circle cx="197.25" cy="145.54" r="0.959677" fill="white"/>
<circle cx="200.814" cy="141.976" r="0.959677" fill="white"/>
<circle cx="210.137" cy="138.96" r="0.959677" fill="white"/>
<circle cx="215.621" cy="140.056" r="0.959677" fill="white"/>
<circle cx="220.008" cy="142.25" r="0.959677" fill="white"/>
<circle cx="223.573" cy="146.089" r="0.959677" fill="white"/>
<circle cx="225.492" cy="150.75" r="0.959677" fill="white"/>
<circle cx="226.041" cy="155.685" r="0.959677" fill="white"/>
<circle cx="225.217" cy="160.347" r="0.959677" fill="white"/>
<circle cx="205.202" cy="139.782" r="0.959677" fill="white"/>
</svg>
