<svg width="84" height="84" viewBox="0 0 84 84" fill="none" xmlns="http://www.w3.org/2000/svg">
<path d="M30 56.8438L52.9359 43.5476L75.8718 56.8438" stroke="#9A9A9A" stroke-opacity="0.5" stroke-width="0.8" stroke-linecap="round" stroke-linejoin="round"/>
<path d="M52.9346 1V43.5478" stroke="#9A9A9A" stroke-opacity="0.5" stroke-width="0.8" stroke-linecap="round" stroke-linejoin="round"/>
<path d="M52.9365 70.1407L75.8721 56.8445" stroke="white" stroke-width="0.8" stroke-linecap="round" stroke-linejoin="round"/>
<path d="M52.9346 27.593V70.1408" stroke="white" stroke-width="0.8" stroke-linecap="round" stroke-linejoin="round"/>
<path d="M30 14.2952V48.8023M75.8718 56.8429V14.2952" stroke="white" stroke-width="0.8" stroke-linecap="round" stroke-linejoin="round"/>
<path d="M52.9359 1L75.8718 14.2962L52.9359 27.5924L30 14.2962L52.9359 1Z" stroke="white" stroke-width="0.8" stroke-linecap="round" stroke-linejoin="round"/>
<path d="M7.14844 69.8069L30.0843 56.5107L53.0202 69.8069" stroke="#9A9A9A" stroke-opacity="0.5" stroke-width="0.8" stroke-linecap="round" stroke-linejoin="round"/>
<path d="M30.0859 48.5344V56.5121" stroke="#9A9A9A" stroke-opacity="0.5" stroke-width="0.8" stroke-linecap="round" stroke-linejoin="round"/>
<path d="M7.14844 69.8076L30.0843 83.1038L53.0202 69.8076" stroke="white" stroke-width="0.8" stroke-linecap="round" stroke-linejoin="round"/>
<path d="M30.0859 75.1274V83.1051" stroke="white" stroke-width="0.8" stroke-linecap="round" stroke-linejoin="round"/>
<path d="M7.14844 61.8296V69.8073M53.0202 69.8073V61.8296" stroke="white" stroke-width="0.8" stroke-linecap="round" stroke-linejoin="round"/>
<path d="M30.0843 48.5344L53.0202 61.8306L30.0843 75.1268L7.14844 61.8306L30.0843 48.5344Z" stroke="white" stroke-width="0.8" stroke-linecap="round" stroke-linejoin="round"/>
</svg>
