<svg width="195" height="184" viewBox="0 0 195 184" fill="none" xmlns="http://www.w3.org/2000/svg">
<rect x="0.3" y="0.3" width="193.416" height="35.7779" rx="7.7" fill="black" stroke="white" stroke-width="0.6"/>
<path d="M15.6349 21.9395L13.4376 14.154H14.9544L16.3571 19.8753H16.4294L17.9271 14.154H19.3071L20.8087 19.8791H20.8771L22.2798 14.154H23.7966L21.5994 21.9395H20.208L18.6494 16.4767H18.5886L17.0262 21.9395H15.6349ZM26.7029 22.0535C26.1174 22.0535 25.6118 21.9319 25.1861 21.6886C24.7628 21.4427 24.4372 21.0955 24.2091 20.647C23.981 20.1958 23.867 19.6649 23.867 19.0541C23.867 18.4535 23.981 17.9264 24.2091 17.4727C24.4397 17.0165 24.7616 16.6617 25.1747 16.4083C25.5878 16.1523 26.0731 16.0244 26.6306 16.0244C26.9905 16.0244 27.3301 16.0826 27.6494 16.1992C27.9713 16.3133 28.2551 16.4907 28.501 16.7314C28.7493 16.9722 28.9445 17.2788 29.0864 17.6514C29.2283 18.0214 29.2993 18.4624 29.2993 18.9743V19.3963H24.5132V18.4687H27.9802C27.9776 18.2051 27.9206 17.9707 27.8091 17.7654C27.6976 17.5576 27.5417 17.3942 27.3415 17.275C27.1438 17.1559 26.9132 17.0964 26.6496 17.0964C26.3683 17.0964 26.1212 17.1648 25.9083 17.3016C25.6955 17.436 25.5295 17.6134 25.4104 17.8339C25.2938 18.0518 25.2342 18.2913 25.2317 18.5523V19.3621C25.2317 19.7016 25.2938 19.9931 25.418 20.2364C25.5421 20.4772 25.7157 20.6622 25.9388 20.7914C26.1618 20.9181 26.4228 20.9815 26.7219 20.9815C26.9221 20.9815 27.1033 20.9536 27.2655 20.8978C27.4277 20.8396 27.5683 20.7547 27.6874 20.6431C27.8066 20.5316 27.8965 20.3935 27.9573 20.2288L29.2422 20.3732C29.1611 20.7128 29.0066 21.0094 28.7785 21.2628C28.5529 21.5137 28.264 21.7088 27.9117 21.8482C27.5595 21.9851 27.1565 22.0535 26.7029 22.0535ZM30.5243 21.9395V14.154H31.9004V17.066H31.9574C32.0284 16.924 32.1285 16.7732 32.2578 16.6136C32.387 16.4514 32.5619 16.3133 32.7824 16.1992C33.0029 16.0826 33.2842 16.0244 33.6263 16.0244C34.0774 16.0244 34.4842 16.1397 34.8466 16.3703C35.2115 16.5984 35.5004 16.9367 35.7133 17.3853C35.9287 17.8313 36.0364 18.3787 36.0364 19.0275C36.0364 19.6687 35.9313 20.2136 35.7209 20.6622C35.5106 21.1107 35.2242 21.4529 34.8618 21.6886C34.4994 21.9242 34.0888 22.0421 33.6301 22.0421C33.2956 22.0421 33.0181 21.9863 32.7976 21.8748C32.5771 21.7633 32.3997 21.629 32.2654 21.4719C32.1336 21.3122 32.0309 21.1614 31.9574 21.0195H31.8776V21.9395H30.5243ZM31.8738 19.0199C31.8738 19.3975 31.927 19.7283 32.0335 20.0121C32.1425 20.2959 32.2983 20.5177 32.5011 20.6774C32.7063 20.8345 32.9547 20.9131 33.2462 20.9131C33.5503 20.9131 33.805 20.832 34.0102 20.6698C34.2155 20.505 34.3701 20.2807 34.474 19.9969C34.5805 19.7105 34.6337 19.3849 34.6337 19.0199C34.6337 18.6575 34.5817 18.3357 34.4778 18.0543C34.3739 17.773 34.2193 17.5525 34.014 17.3929C33.8088 17.2332 33.5528 17.1534 33.2462 17.1534C32.9522 17.1534 32.7025 17.2307 32.4973 17.3853C32.292 17.5399 32.1361 17.7566 32.0297 18.0353C31.9258 18.3141 31.8738 18.6423 31.8738 19.0199ZM42.5607 21.9395H39.9225V14.154H42.6139C43.3869 14.154 44.0509 14.3099 44.6059 14.6216C45.1635 14.9308 45.5918 15.3756 45.8908 15.9559C46.1899 16.5363 46.3394 17.2307 46.3394 18.0391C46.3394 18.8501 46.1886 19.5471 45.887 20.1299C45.588 20.7128 45.1559 21.1602 44.5907 21.4719C44.0281 21.7836 43.3514 21.9395 42.5607 21.9395ZM41.3328 20.7192H42.4923C43.0346 20.7192 43.487 20.6203 43.8494 20.4227C44.2118 20.2225 44.4843 19.9247 44.6667 19.5293C44.8492 19.1314 44.9404 18.6347 44.9404 18.0391C44.9404 17.4436 44.8492 16.9494 44.6667 16.5566C44.4843 16.1612 44.2144 15.866 43.857 15.6708C43.5022 15.4731 43.0613 15.3743 42.5341 15.3743H41.3328V20.7192ZM50.2036 22.0535C49.6182 22.0535 49.1126 21.9319 48.6868 21.6886C48.2636 21.4427 47.9379 21.0955 47.7098 20.647C47.4817 20.1958 47.3677 19.6649 47.3677 19.0541C47.3677 18.4535 47.4817 17.9264 47.7098 17.4727C47.9404 17.0165 48.2623 16.6617 48.6754 16.4083C49.0885 16.1523 49.5738 16.0244 50.1314 16.0244C50.4912 16.0244 50.8308 16.0826 51.1502 16.1992C51.472 16.3133 51.7559 16.4907 52.0017 16.7314C52.2501 16.9722 52.4452 17.2788 52.5871 17.6514C52.729 18.0214 52.8 18.4624 52.8 18.9743V19.3963H48.0139V18.4687H51.4809C51.4784 18.2051 51.4213 17.9707 51.3098 17.7654C51.1983 17.5576 51.0425 17.3942 50.8422 17.275C50.6446 17.1559 50.4139 17.0964 50.1504 17.0964C49.8691 17.0964 49.622 17.1648 49.4091 17.3016C49.1962 17.436 49.0302 17.6134 48.9111 17.8339C48.7945 18.0518 48.735 18.2913 48.7324 18.5523V19.3621C48.7324 19.7016 48.7945 19.9931 48.9187 20.2364C49.0429 20.4772 49.2165 20.6622 49.4395 20.7914C49.6625 20.9181 49.9236 20.9815 50.2226 20.9815C50.4228 20.9815 50.604 20.9536 50.7662 20.8978C50.9284 20.8396 51.0691 20.7547 51.1882 20.6431C51.3073 20.5316 51.3973 20.3935 51.4581 20.2288L52.743 20.3732C52.6619 20.7128 52.5073 21.0094 52.2792 21.2628C52.0536 21.5137 51.7647 21.7088 51.4125 21.8482C51.0602 21.9851 50.6572 22.0535 50.2036 22.0535ZM58.5792 17.6438L57.3247 17.7806C57.2892 17.6539 57.2271 17.5348 57.1384 17.4233C57.0523 17.3118 56.9357 17.2218 56.7887 17.1534C56.6417 17.085 56.4618 17.0508 56.2489 17.0508C55.9625 17.0508 55.7218 17.1128 55.5266 17.237C55.334 17.3612 55.239 17.5221 55.2415 17.7198C55.239 17.8896 55.3011 18.0277 55.4278 18.1342C55.557 18.2406 55.7699 18.328 56.0664 18.3965L57.0624 18.6094C57.6149 18.7285 58.0255 18.9173 58.2941 19.1758C58.5653 19.4343 58.7021 19.7726 58.7047 20.1908C58.7021 20.5582 58.5944 20.8826 58.3815 21.164C58.1712 21.4427 57.8785 21.6607 57.5034 21.8178C57.1283 21.9749 56.6975 22.0535 56.2109 22.0535C55.4962 22.0535 54.9209 21.904 54.485 21.6049C54.0491 21.3033 53.7893 20.8839 53.7057 20.3466L55.0476 20.2174C55.1085 20.481 55.2377 20.6799 55.4354 20.8142C55.6331 20.9485 55.8903 21.0157 56.2071 21.0157C56.534 21.0157 56.7963 20.9485 56.994 20.8142C57.1942 20.6799 57.2943 20.5139 57.2943 20.3162C57.2943 20.149 57.2297 20.0108 57.1004 19.9019C56.9737 19.7929 56.776 19.7093 56.5074 19.651L55.5114 19.4419C54.9513 19.3253 54.537 19.1289 54.2683 18.8527C53.9997 18.5739 53.8666 18.2216 53.8692 17.7958C53.8666 17.436 53.9642 17.1242 54.1619 16.8607C54.3621 16.5946 54.6396 16.3893 54.9944 16.2448C55.3517 16.0978 55.7636 16.0244 56.2299 16.0244C56.9142 16.0244 57.4527 16.1701 57.8455 16.4615C58.2409 16.753 58.4854 17.1471 58.5792 17.6438ZM59.8394 21.9395V16.1004H61.2155V21.9395H59.8394ZM60.5313 15.2717C60.3133 15.2717 60.1258 15.1994 59.9686 15.055C59.8115 14.908 59.733 14.7318 59.733 14.5266C59.733 14.3188 59.8115 14.1426 59.9686 13.9982C60.1258 13.8512 60.3133 13.7777 60.5313 13.7777C60.7517 13.7777 60.9393 13.8512 61.0939 13.9982C61.251 14.1426 61.3296 14.3188 61.3296 14.5266C61.3296 14.7318 61.251 14.908 61.0939 15.055C60.9393 15.1994 60.7517 15.2717 60.5313 15.2717ZM65.17 24.2508C64.6758 24.2508 64.2513 24.1836 63.8965 24.0493C63.5417 23.9175 63.2566 23.7401 63.0412 23.5171C62.8258 23.294 62.6762 23.047 62.5926 22.7758L63.8319 22.4755C63.8877 22.5895 63.9687 22.7023 64.0752 22.8138C64.1816 22.9278 64.3248 23.0216 64.5048 23.0951C64.6872 23.1711 64.9166 23.2091 65.1928 23.2091C65.5831 23.2091 65.9062 23.1141 66.1622 22.924C66.4182 22.7365 66.5462 22.4273 66.5462 21.9965V20.8902H66.4777C66.4068 21.0322 66.3029 21.1779 66.166 21.3274C66.0317 21.4769 65.853 21.6024 65.63 21.7038C65.4095 21.8051 65.132 21.8558 64.7975 21.8558C64.3489 21.8558 63.9421 21.7506 63.5772 21.5403C63.2148 21.3274 62.9259 21.0106 62.7105 20.5899C62.4976 20.1667 62.3911 19.637 62.3911 19.0009C62.3911 18.3597 62.4976 17.8187 62.7105 17.3777C62.9259 16.9342 63.2161 16.5984 63.581 16.3703C63.9459 16.1397 64.3527 16.0244 64.8013 16.0244C65.1434 16.0244 65.4247 16.0826 65.6452 16.1992C65.8682 16.3133 66.0456 16.4514 66.1774 16.6136C66.3092 16.7732 66.4093 16.924 66.4777 17.066H66.5538V16.1004H67.9109V22.0345C67.9109 22.5338 67.7918 22.9468 67.5535 23.2738C67.3153 23.6007 66.9897 23.8453 66.5766 24.0075C66.1635 24.1697 65.6946 24.2508 65.17 24.2508ZM65.1814 20.7762C65.4729 20.7762 65.7212 20.7052 65.9265 20.5633C66.1318 20.4214 66.2877 20.2174 66.3941 19.9513C66.5005 19.6852 66.5538 19.3659 66.5538 18.9933C66.5538 18.6258 66.5005 18.304 66.3941 18.0277C66.2902 17.7515 66.1356 17.5373 65.9303 17.3853C65.7276 17.2307 65.4779 17.1534 65.1814 17.1534C64.8748 17.1534 64.6188 17.2332 64.4135 17.3929C64.2082 17.5525 64.0536 17.7718 63.9497 18.0505C63.8458 18.3268 63.7939 18.641 63.7939 18.9933C63.7939 19.3506 63.8458 19.6636 63.9497 19.9323C64.0562 20.1984 64.212 20.4062 64.4173 20.5557C64.6251 20.7027 64.8798 20.7762 65.1814 20.7762ZM70.6974 18.5181V21.9395H69.3212V16.1004H70.6365V17.0926H70.705C70.8393 16.7656 71.0534 16.5059 71.3474 16.3133C71.6439 16.1207 72.0101 16.0244 72.446 16.0244C72.849 16.0244 73.2 16.1105 73.4991 16.2829C73.8006 16.4552 74.0338 16.7048 74.1985 17.0317C74.3658 17.3587 74.4482 17.7553 74.4456 18.2216V21.9395H73.0695V18.4345C73.0695 18.0442 72.9681 17.7388 72.7654 17.5183C72.5652 17.2978 72.2877 17.1876 71.9328 17.1876C71.6921 17.1876 71.4779 17.2408 71.2904 17.3473C71.1054 17.4512 70.9597 17.602 70.8532 17.7996C70.7493 17.9973 70.6974 18.2368 70.6974 18.5181Z" fill="white"/>
<path d="M180.44 15.48L175.48 20.44" stroke="white" stroke-width="0.8" stroke-linecap="round" stroke-linejoin="round"/>
<path d="M175.48 15.48L180.44 20.44" stroke="white" stroke-width="0.8" stroke-linecap="round" stroke-linejoin="round"/>
<path d="M97 36L97 126" stroke="white" stroke-width="0.6" stroke-linecap="round" stroke-dasharray="5.76 5.76"/>
<rect x="68.35" y="126.35" width="57.3" height="57.3" rx="7.65" fill="black" stroke="white" stroke-width="0.7"/>
<circle cx="97" cy="155" r="16.65" fill="black" stroke="white" stroke-width="0.7"/>
<path d="M102.289 155.756C102.706 155.756 103.044 155.417 103.044 155C103.044 154.583 102.706 154.245 102.289 154.245C101.871 154.245 101.533 154.583 101.533 155C101.533 155.417 101.871 155.756 102.289 155.756Z" fill="white" stroke="white" stroke-width="0.8" stroke-linecap="round" stroke-linejoin="round"/>
<path d="M96.9997 155.756C97.417 155.756 97.7553 155.417 97.7553 155C97.7553 154.583 97.417 154.245 96.9997 154.245C96.5824 154.245 96.2441 154.583 96.2441 155C96.2441 155.417 96.5824 155.756 96.9997 155.756Z" fill="white" stroke="white" stroke-width="0.8" stroke-linecap="round" stroke-linejoin="round"/>
<path d="M91.7106 155.756C92.1279 155.756 92.4662 155.417 92.4662 155C92.4662 154.583 92.1279 154.245 91.7106 154.245C91.2934 154.245 90.9551 154.583 90.9551 155C90.9551 155.417 91.2934 155.756 91.7106 155.756Z" fill="white" stroke="white" stroke-width="0.8" stroke-linecap="round" stroke-linejoin="round"/>
</svg>
