<svg width="28" height="28" viewBox="0 0 28 28" fill="none" xmlns="http://www.w3.org/2000/svg">
<g clip-path="url(#clip0_1_107)">
<path d="M11.1774 11.2904C12.1128 11.2904 12.871 10.5322 12.871 9.59687C12.871 8.66155 12.1128 7.90332 11.1774 7.90332C10.2421 7.90332 9.48389 8.66155 9.48389 9.59687C9.48389 10.5322 10.2421 11.2904 11.1774 11.2904Z" fill="#0F141F"/>
<path d="M17.0484 11.2904C17.9837 11.2904 18.742 10.5322 18.742 9.59687C18.742 8.66155 17.9837 7.90332 17.0484 7.90332C16.1131 7.90332 15.3549 8.66155 15.3549 9.59687C15.3549 10.5322 16.1131 11.2904 17.0484 11.2904Z" fill="#0F141F"/>
<path d="M11.1774 20.0968C12.1128 20.0968 12.871 19.3386 12.871 18.4033C12.871 17.4679 12.1128 16.7097 11.1774 16.7097C10.2421 16.7097 9.48389 17.4679 9.48389 18.4033C9.48389 19.3386 10.2421 20.0968 11.1774 20.0968Z" fill="#0F141F"/>
<path d="M16.8226 20.0968C17.7579 20.0968 18.5162 19.3386 18.5162 18.4033C18.5162 17.4679 17.7579 16.7097 16.8226 16.7097C15.8873 16.7097 15.1291 17.4679 15.1291 18.4033C15.1291 19.3386 15.8873 20.0968 16.8226 20.0968Z" fill="#0F141F"/>
<path d="M19.3064 15.8063C20.2418 15.8063 21 15.0481 21 14.1127C21 13.1774 20.2418 12.4192 19.3064 12.4192C18.3711 12.4192 17.6129 13.1774 17.6129 14.1127C17.6129 15.0481 18.3711 15.8063 19.3064 15.8063Z" fill="#0F141F"/>
<path d="M8.9194 15.8063C9.85472 15.8063 10.6129 15.0481 10.6129 14.1127C10.6129 13.1774 9.85472 12.4192 8.9194 12.4192C7.98408 12.4192 7.22585 13.1774 7.22585 14.1127C7.22585 15.0481 7.98408 15.8063 8.9194 15.8063Z" fill="#0F141F"/>
<path d="M4.17743 14.9033C4.86333 14.9033 5.41936 14.3473 5.41936 13.6614C5.41936 12.9755 4.86333 12.4194 4.17743 12.4194C3.49153 12.4194 2.93549 12.9755 2.93549 13.6614C2.93549 14.3473 3.49153 14.9033 4.17743 14.9033Z" fill="#0F141F"/>
<path d="M5.98382 9.7097C6.66973 9.7097 7.22576 9.15367 7.22576 8.46776C7.22576 7.78186 6.66973 7.22583 5.98382 7.22583C5.29792 7.22583 4.74189 7.78186 4.74189 8.46776C4.74189 9.15367 5.29792 9.7097 5.98382 9.7097Z" fill="#0F141F"/>
<path d="M10.2742 6.09666C10.9601 6.09666 11.5161 5.54063 11.5161 4.85473C11.5161 4.16883 10.9601 3.61279 10.2742 3.61279C9.58831 3.61279 9.03227 4.16883 9.03227 4.85473C9.03227 5.54063 9.58831 6.09666 10.2742 6.09666Z" fill="#0F141F"/>
<path d="M15.6936 5.645C16.3795 5.645 16.9355 5.08897 16.9355 4.40307C16.9355 3.71717 16.3795 3.16113 15.6936 3.16113C15.0077 3.16113 14.4517 3.71717 14.4517 4.40307C14.4517 5.08897 15.0077 5.645 15.6936 5.645Z" fill="#0F141F"/>
<path d="M20.6613 7.9033C21.3472 7.9033 21.9032 7.34727 21.9032 6.66137C21.9032 5.97547 21.3472 5.41943 20.6613 5.41943C19.9754 5.41943 19.4194 5.97547 19.4194 6.66137C19.4194 7.34727 19.9754 7.9033 20.6613 7.9033Z" fill="#0F141F"/>
<path d="M23.5968 12.645C24.2827 12.645 24.8388 12.089 24.8388 11.4031C24.8388 10.7172 24.2827 10.1611 23.5968 10.1611C22.9109 10.1611 22.3549 10.7172 22.3549 11.4031C22.3549 12.089 22.9109 12.645 23.5968 12.645Z" fill="#0F141F"/>
<path d="M23.371 18.0647C24.0569 18.0647 24.6129 17.5086 24.6129 16.8227C24.6129 16.1368 24.0569 15.5808 23.371 15.5808C22.6851 15.5808 22.1291 16.1368 22.1291 16.8227C22.1291 17.5086 22.6851 18.0647 23.371 18.0647Z" fill="#0F141F"/>
<path d="M20.2097 22.8064C20.8956 22.8064 21.4516 22.2503 21.4516 21.5644C21.4516 20.8785 20.8956 20.3225 20.2097 20.3225C19.5238 20.3225 18.9677 20.8785 18.9677 21.5644C18.9677 22.2503 19.5238 22.8064 20.2097 22.8064Z" fill="#0F141F"/>
<path d="M15.2419 25.0644C15.9278 25.0644 16.4838 24.5084 16.4838 23.8225C16.4838 23.1366 15.9278 22.5806 15.2419 22.5806C14.556 22.5806 14 23.1366 14 23.8225C14 24.5084 14.556 25.0644 15.2419 25.0644Z" fill="#0F141F"/>
<path d="M9.59683 23.9355C10.2827 23.9355 10.8388 23.3795 10.8388 22.6936C10.8388 22.0077 10.2827 21.4517 9.59683 21.4517C8.91093 21.4517 8.3549 22.0077 8.3549 22.6936C8.3549 23.3795 8.91093 23.9355 9.59683 23.9355Z" fill="#0F141F"/>
<path d="M5.75803 20.0967C6.44393 20.0967 6.99997 19.5406 6.99997 18.8547C6.99997 18.1688 6.44393 17.6128 5.75803 17.6128C5.07213 17.6128 4.5161 18.1688 4.5161 18.8547C4.5161 19.5406 5.07213 20.0967 5.75803 20.0967Z" fill="#0F141F"/>
<path d="M5.98388 25.2904C6.42036 25.2904 6.7742 24.9365 6.7742 24.5C6.7742 24.0636 6.42036 23.7097 5.98388 23.7097C5.5474 23.7097 5.19356 24.0636 5.19356 24.5C5.19356 24.9365 5.5474 25.2904 5.98388 25.2904Z" fill="#0F141F"/>
<path d="M9.59678 27.0968C10.0333 27.0968 10.3871 26.7429 10.3871 26.3064C10.3871 25.87 10.0333 25.5161 9.59678 25.5161C9.1603 25.5161 8.80646 25.87 8.80646 26.3064C8.80646 26.7429 9.1603 27.0968 9.59678 27.0968Z" fill="#0F141F"/>
<path d="M13.6613 27.9998C14.0977 27.9998 14.4516 27.646 14.4516 27.2095C14.4516 26.773 14.0977 26.4192 13.6613 26.4192C13.2248 26.4192 12.8709 26.773 12.8709 27.2095C12.8709 27.646 13.2248 27.9998 13.6613 27.9998Z" fill="#0F141F"/>
<path d="M17.7258 27.3226C18.1623 27.3226 18.5161 26.9687 18.5161 26.5323C18.5161 26.0958 18.1623 25.7419 17.7258 25.7419C17.2893 25.7419 16.9355 26.0958 16.9355 26.5323C16.9355 26.9687 17.2893 27.3226 17.7258 27.3226Z" fill="#0F141F"/>
<path d="M21.5645 25.5162C22.001 25.5162 22.3548 25.1624 22.3548 24.7259C22.3548 24.2894 22.001 23.9355 21.5645 23.9355C21.128 23.9355 20.7742 24.2894 20.7742 24.7259C20.7742 25.1624 21.128 25.5162 21.5645 25.5162Z" fill="#0F141F"/>
<path d="M24.5 22.8065C24.9365 22.8065 25.2903 22.4526 25.2903 22.0162C25.2903 21.5797 24.9365 21.2258 24.5 21.2258C24.0635 21.2258 23.7097 21.5797 23.7097 22.0162C23.7097 22.4526 24.0635 22.8065 24.5 22.8065Z" fill="#0F141F"/>
<path d="M3.27423 22.3548C3.71072 22.3548 4.06455 22.001 4.06455 21.5645C4.06455 21.128 3.71072 20.7742 3.27423 20.7742C2.83775 20.7742 2.48391 21.128 2.48391 21.5645C2.48391 22.001 2.83775 22.3548 3.27423 22.3548Z" fill="#0F141F"/>
<path d="M1.46771 18.5162C1.90419 18.5162 2.25803 18.1624 2.25803 17.7259C2.25803 17.2894 1.90419 16.9355 1.46771 16.9355C1.03122 16.9355 0.677383 17.2894 0.677383 17.7259C0.677383 18.1624 1.03122 18.5162 1.46771 18.5162Z" fill="#0F141F"/>
<path d="M0.790322 14.4517C1.22681 14.4517 1.58064 14.0979 1.58064 13.6614C1.58064 13.2249 1.22681 12.8711 0.790322 12.8711C0.353839 12.8711 0 13.2249 0 13.6614C0 14.0979 0.353839 14.4517 0.790322 14.4517Z" fill="#0F141F"/>
<path d="M1.69354 10.387C2.13003 10.387 2.48387 10.0332 2.48387 9.59672C2.48387 9.16024 2.13003 8.8064 1.69354 8.8064C1.25706 8.8064 0.903221 9.16024 0.903221 9.59672C0.903221 10.0332 1.25706 10.387 1.69354 10.387Z" fill="#0F141F"/>
<path d="M3.49998 6.99983C3.93646 6.99983 4.2903 6.64599 4.2903 6.20951C4.2903 5.77303 3.93646 5.41919 3.49998 5.41919C3.0635 5.41919 2.70966 5.77303 2.70966 6.20951C2.70966 6.64599 3.0635 6.99983 3.49998 6.99983Z" fill="#0F141F"/>
<path d="M6.43546 4.06453C6.87195 4.06453 7.22579 3.71069 7.22579 3.27421C7.22579 2.83773 6.87195 2.48389 6.43546 2.48389C5.99898 2.48389 5.64514 2.83773 5.64514 3.27421C5.64514 3.71069 5.99898 4.06453 6.43546 4.06453Z" fill="#0F141F"/>
<path d="M14.113 1.58064C14.5494 1.58064 14.9033 1.22681 14.9033 0.790322C14.9033 0.353839 14.5494 0 14.113 0C13.6765 0 13.3226 0.353839 13.3226 0.790322C13.3226 1.22681 13.6765 1.58064 14.113 1.58064Z" fill="#0F141F"/>
<path d="M18.629 2.48397C19.0655 2.48397 19.4193 2.13013 19.4193 1.69364C19.4193 1.25716 19.0655 0.90332 18.629 0.90332C18.1925 0.90332 17.8387 1.25716 17.8387 1.69364C17.8387 2.13013 18.1925 2.48397 18.629 2.48397Z" fill="#0F141F"/>
<path d="M22.242 4.29036C22.6785 4.29036 23.0323 3.93652 23.0323 3.50004C23.0323 3.06356 22.6785 2.70972 22.242 2.70972C21.8055 2.70972 21.4516 3.06356 21.4516 3.50004C21.4516 3.93652 21.8055 4.29036 22.242 4.29036Z" fill="#0F141F"/>
<path d="M25.1774 7.45174C25.6139 7.45174 25.9678 7.0979 25.9678 6.66142C25.9678 6.22493 25.6139 5.87109 25.1774 5.87109C24.7409 5.87109 24.3871 6.22493 24.3871 6.66142C24.3871 7.0979 24.7409 7.45174 25.1774 7.45174Z" fill="#0F141F"/>
<path d="M26.758 11.2904C27.1945 11.2904 27.5484 10.9365 27.5484 10.5C27.5484 10.0636 27.1945 9.70972 26.758 9.70972C26.3216 9.70972 25.9677 10.0636 25.9677 10.5C25.9677 10.9365 26.3216 11.2904 26.758 11.2904Z" fill="#0F141F"/>
<path d="M27.2097 15.3548C27.6462 15.3548 28 15.001 28 14.5645C28 14.128 27.6462 13.7742 27.2097 13.7742C26.7732 13.7742 26.4194 14.128 26.4194 14.5645C26.4194 15.001 26.7732 15.3548 27.2097 15.3548Z" fill="#0F141F"/>
<path d="M26.5322 19.1934C26.9687 19.1934 27.3226 18.8396 27.3226 18.4031C27.3226 17.9666 26.9687 17.6128 26.5322 17.6128C26.0958 17.6128 25.7419 17.9666 25.7419 18.4031C25.7419 18.8396 26.0958 19.1934 26.5322 19.1934Z" fill="#0F141F"/>
<path d="M10.0484 2.25814C10.4849 2.25814 10.8387 1.9043 10.8387 1.46781C10.8387 1.03133 10.4849 0.67749 10.0484 0.67749C9.61193 0.67749 9.25809 1.03133 9.25809 1.46781C9.25809 1.9043 9.61193 2.25814 10.0484 2.25814Z" fill="#0F141F"/>
</g>
<defs>
<clipPath id="clip0_1_107">
<rect width="28" height="28" fill="white"/>
</clipPath>
</defs>
</svg>
