<svg width="101" height="26" viewBox="0 0 101 26" fill="none" xmlns="http://www.w3.org/2000/svg">
<path d="M1.7066 10.2703H11.5251V13.0186L7.82379 13.3067C1.86175 13.75 0 15.3236 0 19.7564V20.6429C0 23.8788 2.2607 25.8292 5.76256 25.8292C8.51086 25.8292 10.1067 25.1865 12.0571 23.1917H12.3895V25.2973H16.3347V5.94836H1.7066V10.2703ZM11.5251 19.6012C10.3061 20.8202 8.4887 21.6181 6.98157 21.6181C5.36362 21.6181 4.67654 21.0197 4.72087 19.6677C4.7652 17.8059 5.45227 17.3627 8.57736 17.0745L11.5473 16.7864V19.6012H11.5251Z" fill="white"/>
<path fill-rule="evenodd" clip-rule="evenodd" d="M24.5797 5.97059H32.1597V9.91573H36.3043V25.3195H31.4727V10.3147H24.5797V25.3195H19.748V0.163696H24.5797V5.97059ZM95.149 13.7722L92.2234 13.4841C90.6054 13.3289 90.2065 12.9078 90.2065 11.6223C90.2065 10.1595 90.7827 9.80491 93.0434 9.80491C95.0603 9.80491 95.6366 10.1374 95.9247 11.5115H100.468C100.357 6.8793 98.9168 5.70462 93.2872 5.70462C87.1257 5.70462 85.5743 6.8793 85.5743 11.6223C85.5743 15.9664 86.7046 17.1411 91.2925 17.5844L93.6862 17.806C95.8361 18.0055 96.368 18.4044 96.368 19.7121C96.368 21.2857 95.7253 21.7068 93.0878 21.7068C90.7827 21.7068 90.1622 21.3522 90.0513 19.8451H85.4635C85.5743 24.6324 87.0371 25.8514 92.8883 25.8514C99.3823 25.8514 101 24.5438 101 19.2688C101 15.3458 99.8255 14.2155 95.149 13.7722ZM70.3035 14.1268C70.3035 7.87667 68.1536 5.68246 61.9921 5.68246C55.8971 5.68246 53.5255 8.51942 53.5255 15.5896C53.5255 23.3026 55.6311 25.8514 62.4575 25.8514C67.3557 25.8514 69.4391 24.3443 70.1262 20.1332H65.4718C64.9399 21.4409 64.3858 21.729 62.391 21.729C59.3989 21.729 58.6232 20.8868 58.4459 17.2741H70.0154C70.1927 16.2102 70.2813 15.1685 70.3035 14.1268ZM58.4681 13.4398C58.5124 10.7136 59.5984 9.71626 62.1916 9.71626C64.6739 9.71626 65.6713 10.7358 65.7599 13.4398H58.4681ZM73.1183 6.83497V25.3417H77.95V10.1374H83.7569V5.99275H77.95V5.46083C77.9943 4.33048 78.2824 3.99802 79.2133 3.99802H84.4883V0.185861H78.8143C74.9357 0.163698 73.1183 1.36054 73.1183 6.83497ZM44.6601 25.3195H39.8284V5.97059H51.8411V10.5142H44.6601V25.3195Z" fill="white"/>
</svg>
