<svg width="92" height="27" viewBox="0 0 92 27" fill="none" xmlns="http://www.w3.org/2000/svg">
<g clip-path="url(#clip0_1091_7133)">
<path d="M22.1035 0.833252V20.2532L24.5976 20.2627V11.0192H30.6236V8.57268H24.5976V3.27979H32.4418V0.833252H22.1035ZM36.9446 4.77436C37.8489 4.77436 38.5724 4.04135 38.5724 3.14651C38.5724 2.25167 37.8394 1.51866 36.9446 1.51866C36.0402 1.51866 35.3167 2.25167 35.3167 3.14651C35.3167 4.04135 36.0497 4.77436 36.9446 4.77436ZM35.6785 7.2209V20.2532H38.1726V7.2209H35.6785Z" fill="white"/>
<path fill-rule="evenodd" clip-rule="evenodd" d="M47.4354 6.84045C44.1131 6.84045 41.7998 9.64873 41.7998 12.9806C41.7998 16.3124 44.1131 19.1207 47.4354 19.1207C48.9585 19.1207 50.2056 18.5305 51.1195 17.5786V19.3016C51.1195 21.4625 49.425 23.2618 47.2069 23.2618C46.4073 23.2618 45.6172 22.9571 44.9889 22.5192L43.7323 24.6897C44.7318 25.337 45.9218 25.7083 47.1974 25.7083C50.7387 25.7083 53.6041 22.8429 53.6041 19.3016V7.22124H51.1195V8.38263C50.2056 7.43067 48.9585 6.84045 47.4354 6.84045ZM44.3035 12.9806C44.3035 10.9148 45.8837 9.28699 47.7115 9.28699C49.5392 9.28699 51.1195 10.9148 51.1195 12.9806C51.1195 15.0463 49.5392 16.6742 47.7115 16.6742C45.8837 16.6742 44.3035 15.0463 44.3035 12.9806Z" fill="white"/>
<path d="M62.6203 9.28699C61.1448 9.28699 59.9453 10.5436 59.9453 12.0191V20.2536H57.4512V7.22124H59.9453V8.41119C60.6783 7.46875 61.754 6.84045 63.1629 6.84045C64.9145 6.84045 66.2568 7.70674 67.0374 9.03948C67.9037 7.75433 69.3126 6.84045 71.0166 6.84045C73.863 6.84045 75.6336 9.13468 75.6431 11.9715V20.2536H73.149V12.0096C73.149 10.5341 71.9495 9.27747 70.474 9.27747C68.9984 9.27747 67.799 10.5341 67.799 12.0096V20.2536H65.3048V12.0096C65.2953 10.5341 64.0958 9.28699 62.6203 9.28699Z" fill="white"/>
<path fill-rule="evenodd" clip-rule="evenodd" d="M88.9515 8.69677C87.8377 7.5449 86.3145 6.84045 84.5534 6.84045C80.8408 6.84045 78.1943 9.99144 78.1943 13.7422C78.1943 17.4929 80.8313 20.6439 84.5534 20.6439C86.3145 20.6439 87.8377 19.9299 88.9515 18.7875V20.2536H91.4456V7.22124H88.9515V8.69677ZM80.698 13.7422C80.698 11.2575 82.6019 9.28699 84.8295 9.28699C87.0476 9.28699 88.961 11.248 88.961 13.7422C88.961 16.2268 87.0571 18.1973 84.8295 18.1973C82.6019 18.1878 80.698 16.2268 80.698 13.7422Z" fill="white"/>
<path d="M8.38574 13.4184C8.38574 11.1051 10.2611 9.22021 12.5839 9.22021C14.8971 9.22021 16.782 11.0956 16.782 13.4184C16.782 15.7316 14.9067 17.6165 12.5839 17.6165C10.2706 17.6165 8.38574 15.7316 8.38574 13.4184Z" fill="white"/>
<path d="M0 21.8053C0 19.4921 1.87536 17.6072 4.19814 17.6072H8.39628V21.8053C8.39628 24.1186 6.52092 26.0035 4.19814 26.0035C1.87536 26.0035 0 24.1281 0 21.8053Z" fill="white"/>
<path d="M8.38574 0.833738V9.2205H12.5839C14.8971 9.2205 16.782 7.34514 16.782 5.02236C16.782 2.7091 14.9067 0.824219 12.5839 0.824219H8.38574V0.833738Z" fill="white"/>
<path d="M0 5.03139C0 7.34465 1.87536 9.22953 4.19814 9.22953H8.39628V0.833252H4.19814C1.87536 0.833252 0 2.70861 0 5.03139Z" fill="white"/>
<path d="M0 13.4185C0 15.7317 1.87536 17.6166 4.19814 17.6166H8.39628V9.22034H4.19814C1.87536 9.22034 0 11.1052 0 13.4185Z" fill="white"/>
</g>
<defs>
<clipPath id="clip0_1091_7133">
<rect width="91.4452" height="25.2023" fill="white" transform="translate(0 0.812622)"/>
</clipPath>
</defs>
</svg>
