<svg width="94" height="31" viewBox="0 0 94 31" fill="none" xmlns="http://www.w3.org/2000/svg">
<path d="M23.1123 10.8838H12.1444V14.1383H19.9236C19.5381 18.6936 15.7423 20.6489 12.1576 20.6489C11.0219 20.6539 9.89669 20.4326 8.84753 19.998C7.79837 19.5633 6.8463 18.924 6.04692 18.1174C5.24755 17.3107 4.61687 16.3529 4.19172 15.2999C3.76656 14.2468 3.55545 13.1196 3.5707 11.9841C3.5707 7.0573 7.38494 3.26409 12.1681 3.26409C15.8579 3.26409 18.0322 5.61623 18.0322 5.61623L20.3099 3.25621C20.3099 3.25621 17.384 0 12.0489 0C5.25531 0 0 5.73362 0 11.9263C0 17.9946 4.94344 23.9121 12.2206 23.9121C18.6218 23.9121 23.3077 19.5267 23.3077 13.0423C23.3077 11.674 23.1088 10.8838 23.1088 10.8838H23.1123Z" fill="white"/>
<path d="M32.0977 8.52637C27.5966 8.52637 24.3711 12.0454 24.3711 16.1478C24.3711 20.3125 27.4985 23.8963 32.1502 23.8963C36.3605 23.8963 39.8094 20.6787 39.8094 16.2372C39.8094 11.1562 35.7972 8.52637 32.0977 8.52637ZM32.1415 11.5452C34.3543 11.5452 36.4516 13.3349 36.4516 16.2179C36.4516 19.0387 34.3631 20.8802 32.131 20.8802C29.6781 20.8802 27.7508 18.9161 27.7508 16.1951C27.7508 13.532 29.6606 11.5452 32.1485 11.5452H32.1415Z" fill="white"/>
<path d="M48.9014 8.52639C44.4004 8.52639 41.1748 12.0454 41.1748 16.1479C41.1748 20.3125 44.3022 23.8964 48.954 23.8964C53.1642 23.8964 56.6131 20.6787 56.6131 16.2372C56.6131 11.1562 52.6009 8.52551 48.9014 8.52551V8.52639ZM48.9452 11.5452C51.1581 11.5452 53.2553 13.3349 53.2553 16.2179C53.2553 19.0388 51.1668 20.8802 48.9347 20.8802C46.4818 20.8802 44.5545 18.9161 44.5545 16.1952C44.5545 13.532 46.4643 11.5452 48.9522 11.5452H48.9452Z" fill="white"/>
<path d="M65.3818 8.53516C61.2505 8.53516 58.0039 12.1532 58.0039 16.2144C58.0039 20.8399 61.7682 23.9077 65.31 23.9077C67.5001 23.9077 68.6652 23.0378 69.515 22.0401V23.5556C69.515 26.2073 67.9048 27.7956 65.4747 27.7956C63.1269 27.7956 61.9495 26.0496 61.5326 25.0597L58.5786 26.2862C59.6263 28.5025 61.7358 30.8126 65.4992 30.8126C69.6166 30.8126 72.737 28.2257 72.737 22.7996V8.99682H69.5272V10.2986C68.5373 9.22985 67.1812 8.53516 65.3836 8.53516H65.3818ZM65.6797 11.5487C67.7051 11.5487 69.7848 13.278 69.7848 16.2311C69.7848 19.2332 67.7086 20.8872 65.635 20.8872C63.4327 20.8872 61.3836 19.1001 61.3836 16.2591C61.3836 13.3087 63.5124 11.5478 65.6797 11.5478V11.5487Z" fill="white"/>
<path d="M87.0826 8.51672C83.186 8.51672 79.9141 11.6179 79.9141 16.1908C79.9141 21.0317 83.561 23.9025 87.4479 23.9025C90.6998 23.9025 92.7041 22.1241 93.8868 20.5297L91.2298 18.7619C90.5403 19.8307 89.3875 20.8775 87.4646 20.8775C85.3043 20.8775 84.3109 19.6949 83.695 18.5473L93.9998 14.2722L93.4741 13.0195C92.479 10.5666 90.1566 8.51672 87.0835 8.51672H87.0826ZM87.2167 11.4725C88.6209 11.4725 89.631 12.2188 90.0603 13.1141L83.1782 15.9901C82.8803 13.7633 84.9915 11.4725 87.2079 11.4725H87.2167Z" fill="white"/>
<path d="M74.9941 23.4469H78.3791V0.79541H74.9941V23.4469Z" fill="white"/>
</svg>
