<svg width="100" height="33" viewBox="0 0 100 33" fill="none" xmlns="http://www.w3.org/2000/svg">
<g clip-path="url(#clip0_1091_7175)">
<path d="M4.57781 32.758C6.97662 32.758 8.92124 30.8134 8.92124 28.4146C8.92124 26.0158 6.97662 24.0712 4.57781 24.0712C2.179 24.0712 0.234375 26.0158 0.234375 28.4146C0.234375 30.8134 2.179 32.758 4.57781 32.758Z" fill="white"/>
<path d="M20.2557 31.5338C21.9524 31.5338 23.3278 30.1583 23.3278 28.4616C23.3278 26.765 21.9524 25.3895 20.2557 25.3895C18.559 25.3895 17.1836 26.765 17.1836 28.4616C17.1836 30.1583 18.559 31.5338 20.2557 31.5338Z" fill="white"/>
<path d="M33.1799 29.8572C33.9502 29.8572 34.5747 29.2328 34.5747 28.4625C34.5747 27.6922 33.9502 27.0677 33.1799 27.0677C32.4096 27.0677 31.7852 27.6922 31.7852 28.4625C31.7852 29.2328 32.4096 29.8572 33.1799 29.8572Z" fill="white"/>
<path d="M19.4305 19.3154C18.6669 19.3154 18.1012 18.7216 18.1012 17.9861V12.3295C18.1012 10.378 17.1679 8.87902 15.0749 8.87902C12.982 8.87902 11.7093 10.4911 11.7093 12.358V17.9861C11.7093 18.7216 11.2002 19.3154 10.38 19.3154C9.58808 19.3154 9.05071 18.7216 9.05071 17.9861V12.3295C9.05071 10.378 8.03253 8.87902 5.9396 8.87902C3.7901 8.87902 2.65879 10.4911 2.65879 12.358V17.9861C2.65879 18.7216 2.12141 19.3154 1.32949 19.3154C0.565657 19.3154 0 18.7216 0 17.9861V7.94568C0 7.15376 0.509091 6.58811 1.32929 6.58811C2.23434 6.58811 2.65859 7.21033 2.65859 7.94568V8.85073C3.42222 7.35174 4.97778 6.47498 6.64646 6.47498C8.68283 6.47498 10.2101 7.49316 10.9737 8.99215C12.0768 7.29518 13.6889 6.47498 15.697 6.47498C19.1192 6.47498 20.7596 8.82245 20.7596 12.1315V17.9859C20.7594 18.7216 20.2224 19.3154 19.4305 19.3154Z" fill="white"/>
<path d="M24.4931 1.55371C25.3415 1.55371 26.0486 2.26078 26.0486 3.10927C26.0486 3.95775 25.3415 4.66482 24.4931 4.66482C23.6446 4.66482 22.9375 3.95775 22.9375 3.10927C22.9375 2.26078 23.6446 1.55371 24.4931 1.55371ZM24.4931 19.3153C23.7011 19.3153 23.1638 18.7216 23.1638 17.986V7.91735C23.1638 7.18199 23.7294 6.58805 24.4931 6.58805C25.2567 6.58805 25.8223 7.18199 25.8223 7.91735V17.986C25.8219 18.7216 25.285 19.3153 24.4931 19.3153Z" fill="white"/>
<path d="M33.3159 11.169L36.6816 6.98312C36.9079 6.72857 37.1907 6.58716 37.5584 6.58716C38.2937 6.58716 38.7745 7.06797 38.7745 7.74675C38.7745 8.0013 38.6897 8.25585 38.4634 8.51039L34.7584 12.9225L38.52 17.3627C38.718 17.589 38.8311 17.8152 38.8311 18.1546C38.8311 18.8055 38.2654 19.3142 37.6432 19.3142C37.2472 19.3142 36.9361 19.1728 36.7099 18.8896L33.3159 14.6758L29.922 18.8896C29.6957 19.1722 29.3846 19.3142 28.9887 19.3142C28.3664 19.3142 27.8008 18.8049 27.8008 18.1546C27.8008 17.8152 27.9139 17.589 28.1119 17.3627L31.8735 12.9225L28.1685 8.51059C27.9422 8.25564 27.8573 8.0013 27.8573 7.74696C27.8573 7.06817 28.3382 6.58736 29.0735 6.58736C29.4412 6.58736 29.724 6.72877 29.9503 6.98332L33.3159 11.169Z" fill="white"/>
<path d="M47.8266 19.4283C45.9317 19.4283 44.3761 18.4388 43.4711 16.9962V23.275C43.4711 24.0105 42.9337 24.6039 42.1418 24.6039C41.3499 24.6039 40.8125 24.0103 40.8125 23.275V7.917C40.8125 7.18164 41.265 6.5877 42.0852 6.5877C42.9054 6.5877 43.3862 7.20992 43.3862 7.94528V8.9073C44.2347 7.43659 45.9317 6.47498 47.8266 6.47498C51.0792 6.47498 53.7377 9.18972 53.7377 12.9517C53.7377 16.8544 51.0792 19.4283 47.8266 19.4283ZM47.2895 8.68083C44.9986 8.68083 43.4713 10.6885 43.4713 12.9515C43.4713 15.2146 44.9986 17.2222 47.2895 17.2222C49.5804 17.2222 51.0792 15.4972 51.0792 12.9515C51.0792 10.4061 49.5802 8.68083 47.2895 8.68083Z" fill="white"/>
<path d="M67.7654 17.9861C67.7654 18.7216 67.2563 19.3154 66.4361 19.3154C65.6441 19.3154 65.1355 18.7216 65.1355 17.9861V17.3639C64.3435 18.5517 62.8445 19.4287 61.0066 19.4287C57.0462 19.4287 54.7559 16.5441 54.7559 12.9517C54.7559 9.41639 57.3017 6.47498 61.2892 6.47498C65.3619 6.47498 67.7662 9.13356 67.7662 12.9517V17.9861H67.7654ZM61.2603 8.7376C58.9975 8.7376 57.4136 10.633 57.4136 12.9517C57.4136 15.3841 58.7429 17.1659 61.2603 17.1659C63.6076 17.1659 65.1066 15.1578 65.1066 12.9517C65.1066 10.3497 63.5229 8.7376 61.2603 8.7376Z" fill="white"/>
<path d="M75.767 6.47498C79.189 6.47498 81.706 9.077 81.706 12.3861V17.9859C81.706 18.7216 81.1122 19.3152 80.3767 19.3152C79.6415 19.3152 79.0474 18.7216 79.0474 17.9859V12.0748C79.0474 10.293 77.6332 8.9071 75.767 8.9071C73.9003 8.9071 72.5141 10.2926 72.5141 12.0748V17.9859C72.5141 18.7216 71.9203 19.3152 71.1848 19.3152C70.4496 19.3152 69.8555 18.7216 69.8555 17.9859V12.3859C69.8555 9.07679 72.3444 6.47498 75.767 6.47498Z" fill="white"/>
<path d="M95.5387 12.979C95.5387 13.4315 95.2842 13.8841 94.5207 13.8841H86.0644C86.2056 15.8356 87.5349 17.3061 89.8821 17.3061C91.353 17.3061 92.2298 16.7968 93.1629 15.9202C93.3894 15.694 93.7003 15.4956 94.0397 15.4956C94.6334 15.4956 95.1429 15.9202 95.1429 16.5988C95.1429 16.8812 95.0013 17.1358 94.8035 17.362C93.7288 18.6065 91.8052 19.4271 89.7692 19.4271C85.5549 19.4271 83.3203 16.4853 83.3203 12.9499C83.3203 9.24486 86.0074 6.47314 89.6555 6.47314C93.2199 6.47436 95.5387 9.3588 95.5387 12.979ZM89.6561 8.59557C87.7046 8.59557 86.3753 9.98102 86.1207 11.735H93.0781C92.852 10.0376 91.5791 8.59557 89.6561 8.59557Z" fill="white"/>
<path d="M98.6496 19.315C97.8573 19.315 97.3203 18.7212 97.3203 17.9857V1.35578C97.3203 0.620025 97.8577 0.0264893 98.6496 0.0264893C99.4415 0.0264893 99.9785 0.620025 99.9785 1.35578V17.9857C99.9789 18.7212 99.4415 19.315 98.6496 19.315Z" fill="white"/>
</g>
<defs>
<clipPath id="clip0_1091_7175">
<rect width="100" height="32.8125" fill="white" transform="translate(0 0.0262451)"/>
</clipPath>
</defs>
</svg>
