<svg width="109" height="37" viewBox="0 0 109 37" fill="none" xmlns="http://www.w3.org/2000/svg">
<path d="M20.7509 22.1227C22.7859 22.1227 24.4355 20.4731 24.4355 18.4382C24.4355 16.4033 22.7859 14.7537 20.7509 14.7537C18.716 14.7537 17.0664 16.4033 17.0664 18.4382C17.0664 20.4731 18.716 22.1227 20.7509 22.1227Z" fill="white"/>
<path fill-rule="evenodd" clip-rule="evenodd" d="M20.7502 10.9468C25.6972 10.9468 30.2928 11.6566 33.7579 12.8495C37.9328 14.2869 40.4998 16.4655 40.4998 18.4382C40.4998 20.4939 37.7793 22.8084 33.296 24.2939C29.9065 25.4168 25.4462 26.0031 20.7502 26.0031C15.9356 26.0031 11.3764 25.4528 7.94867 24.2815C3.61201 22.7993 1 20.4548 1 18.4382C1 16.4815 3.45087 14.3197 7.56712 12.8846C11.0451 11.672 15.7542 10.9468 20.7496 10.9468H20.7502Z" stroke="white" stroke-width="1.66272"/>
<path fill-rule="evenodd" clip-rule="evenodd" d="M14.2285 14.714C16.6999 10.4286 19.6106 6.80218 22.3751 4.3964C25.7058 1.49781 28.8755 0.362635 30.5843 1.34805C32.3652 2.37504 33.0111 5.88801 32.0582 10.5137C31.3384 14.0111 29.6173 18.1676 27.2713 22.2356C24.866 26.4065 22.1118 30.0811 19.3849 32.4645C15.9345 35.4808 12.5986 36.5723 10.8517 35.5649C9.15657 34.5881 8.50834 31.3844 9.32152 27.1015C10.0086 23.4829 11.7329 19.0413 14.2277 14.7139L14.2285 14.714Z" stroke="white" stroke-width="1.66272"/>
<path fill-rule="evenodd" clip-rule="evenodd" d="M14.2341 22.2466C11.7557 17.9661 10.0683 13.6324 9.36394 10.036C8.51608 5.70268 9.11554 2.38956 10.8229 1.40128C12.602 0.371277 15.9681 1.56609 19.4997 4.70191C22.1699 7.07273 24.9117 10.639 27.2646 14.7032C29.6768 18.87 31.4847 23.0914 32.1881 26.6441C33.078 31.1399 32.3577 34.575 30.6124 35.5854C28.919 36.5657 25.8201 35.5278 22.5158 32.6843C19.7239 30.2819 16.737 26.5697 14.2341 22.2466V22.2466Z" stroke="white" stroke-width="1.66272"/>
<path fill-rule="evenodd" clip-rule="evenodd" d="M61.6503 27.8518L57.1342 21.0289C59.4166 20.8275 61.4733 19.1737 61.4733 16.1523C61.4733 13.0779 59.2915 11.1104 56.231 11.1104H49.5098V27.8391H51.5919V21.1921H54.9281L59.1919 27.8391L61.6503 27.8518ZM55.9818 19.374H51.5929V12.9783H55.9818C57.9643 12.9783 59.318 14.2822 59.318 16.164C59.318 18.0457 57.9632 19.3761 55.9818 19.3761V19.374ZM69.4009 28.1519C71.3833 28.1519 73.0127 27.4999 74.217 26.2966L73.3138 25.0669C72.3597 26.0454 70.9561 26.5967 69.5769 26.5967C66.969 26.5967 65.3629 24.6905 65.2123 22.4092H75.0185V21.9321C75.0185 18.2959 72.8611 15.4357 69.1984 15.4357C65.7371 15.4357 63.2299 18.2704 63.2299 21.7816C63.2299 25.5694 65.8134 28.1423 69.3998 28.1423L69.4009 28.1519ZM73.1643 21.0278H65.2134C65.3141 19.1726 66.5916 16.9887 69.1761 16.9887C71.9356 16.9887 73.1389 19.2214 73.1643 21.0278ZM87.5121 27.8508V19.5235C87.5121 16.5891 85.3812 15.4346 82.8221 15.4346C80.8396 15.4346 79.2855 16.0866 77.9815 17.4414L78.8593 18.7454C79.9375 17.592 81.1174 17.0651 82.5719 17.0651C84.3274 17.0651 85.6325 17.9927 85.6325 19.6232V21.8049C84.654 20.6759 83.2747 20.149 81.6188 20.149C79.5622 20.149 77.3783 21.4285 77.3783 24.1372C77.3783 26.7705 79.5601 28.1508 81.6188 28.1508C83.2493 28.1508 84.6296 27.5741 85.6325 26.4705V27.8487L87.5121 27.8508ZM82.2962 26.797C80.5407 26.797 79.3109 25.6945 79.3109 24.1637C79.3109 22.6085 80.5407 21.5049 82.2962 21.5049C83.6256 21.5049 84.9041 22.0063 85.6325 23.0102V25.2927C84.9052 26.2956 83.6256 26.797 82.2962 26.797ZM96.6079 28.1519C98.8151 28.1519 100.119 27.2486 101.048 26.0454L99.7936 24.892C98.9911 25.9701 97.9628 26.4716 96.7192 26.4716C94.1357 26.4716 92.5317 24.4647 92.5317 21.7816C92.5317 19.0984 94.1368 17.117 96.7192 17.117C97.9734 17.117 99.0017 17.5941 99.7936 18.6966L101.048 17.5432C100.12 16.3389 98.8151 15.4367 96.6079 15.4367C92.9961 15.4367 90.5631 18.1962 90.5631 21.7826C90.5631 25.3945 92.9961 28.1434 96.6079 28.1434V28.1519ZM106.743 28.1519C107.845 28.1519 108.524 27.8253 109.001 27.3748L108.45 25.9701C108.198 26.2458 107.707 26.4716 107.17 26.4716C106.343 26.4716 105.94 25.8196 105.94 24.9164V17.3916H108.4V15.7367H105.94V12.426H104.058V15.7367H102.052V17.3927H104.058V25.3192C104.058 27.1257 104.962 28.154 106.743 28.154V28.1519Z" fill="white"/>
</svg>
