<svg width="108" height="28" viewBox="0 0 108 28" fill="none" xmlns="http://www.w3.org/2000/svg">
<g clip-path="url(#clip0_1091_7200)">
<path d="M74.565 12.5918C74.565 10.8204 73.4579 9.54724 71.4097 9.54724H64.6562V18.7364H66.8705V15.5811H69.4722L72.0186 18.7364H74.5097V18.515L72.0186 15.5257C73.624 15.1936 74.565 14.0311 74.565 12.5918ZM71.1329 13.699H66.8705V11.4294H71.1329C71.9079 11.4294 72.4061 11.8722 72.4061 12.5918C72.4615 13.3115 71.9633 13.699 71.1329 13.699Z" fill="white"/>
<path d="M108 9.49194H105.952V12.9794H100.361V9.49194H98.1465V18.6811H100.361V15.0829H105.952V18.6811H108V9.49194Z" fill="white"/>
<path d="M58.7333 9.49194L56.2977 17.1865H56.1869L53.6959 9.49194H49.7656V18.6811H51.8692V11.1526H51.9799L54.4155 18.6811H57.7923L60.2833 11.1526H60.394V18.6811H62.5529V9.49194H58.7333Z" fill="white"/>
<path d="M34.6537 13.2564C33.8788 13.201 32.4395 13.035 31.6092 12.9796C30.8342 12.9243 30.3913 12.6475 30.3913 12.1493C30.3913 11.6511 30.8895 11.2636 32.7716 11.2636C34.4323 11.2636 35.9823 11.6511 37.3662 12.26V10.2118C36.0376 9.54753 34.543 9.27075 32.6609 9.27075C30.0592 9.27075 28.2324 10.3779 28.2324 12.2046C28.2324 13.7546 29.2842 14.6403 31.4431 14.8617C32.2181 14.9724 33.5466 15.0832 34.4323 15.1385C35.4287 15.1939 35.7055 15.526 35.7055 15.9689C35.7055 16.5778 34.9859 16.9653 33.2698 16.9653C31.4984 16.9653 29.6717 16.3563 28.3431 15.5814V17.6849C29.3949 18.4045 31.1663 18.9581 33.2145 18.9581C36.0376 18.9581 37.8644 17.851 37.8644 15.9135C37.8644 14.4189 36.9233 13.4778 34.6537 13.2564Z" fill="white"/>
<path d="M39.3574 9.49194V18.6811H47.8823V16.799H41.461V14.9169H47.7716V13.0347H41.461V11.3741H47.8823V9.49194H39.3574Z" fill="white"/>
<path d="M93.5522 13.2562C92.7772 13.2008 91.3379 13.0347 90.5076 12.9794C89.7326 12.924 89.2898 12.6472 89.2898 12.149C89.2898 11.6508 89.788 11.2633 91.6701 11.2633C93.3308 11.2633 94.8807 11.5955 96.2646 12.2597V10.2116C94.9361 9.54729 93.4415 9.27051 91.5594 9.27051C88.9576 9.27051 87.1309 10.3776 87.1309 12.2044C87.1309 13.7544 88.1826 14.6401 90.3415 14.8615C91.1165 14.9722 92.4451 15.0829 93.3308 15.1383C94.3272 15.1936 94.604 15.5258 94.604 15.9686C94.604 16.5775 93.8843 16.965 92.1683 16.965C90.3969 16.965 88.5701 16.3561 87.2416 15.5811V17.6847C88.2933 18.4043 90.0647 18.9578 92.1129 18.9578C94.9361 18.9578 96.7628 17.8507 96.7628 15.9133C96.7628 14.4186 95.7664 13.4776 93.5522 13.2562Z" fill="white"/>
<path d="M83.4204 9.49194V14.1972C83.4204 15.9686 82.3133 16.965 80.708 16.965C79.0473 16.965 77.9955 16.024 77.9955 14.1972V9.49194H75.7812V13.9758C75.7812 17.2972 77.8848 18.9579 80.708 18.9579C83.4758 18.9579 85.5793 17.3525 85.5793 14.0865V9.49194H83.4204Z" fill="white"/>
<path d="M20.7032 14.0312C20.7032 14.474 20.4818 14.5294 19.9282 14.5294C19.3193 14.5294 19.2086 14.4186 19.1533 13.9758C19.0425 12.8133 18.2676 11.8169 16.939 11.7615C16.5515 11.7062 16.4408 11.5955 16.4408 11.0419C16.4408 10.5437 16.4962 10.3223 16.8836 10.3223C19.0979 10.3776 20.7032 12.2044 20.7032 14.0312ZM23.9692 14.0312C23.9692 10.5991 21.6443 6.94556 16.2194 6.94556H5.53562C5.3142 6.94556 5.14813 7.05627 5.14813 7.27769C5.14813 7.38841 5.20349 7.49912 5.3142 7.55448C5.70169 7.88661 6.25525 8.21875 7.03024 8.60624C7.74987 8.99374 8.35879 9.21516 8.91235 9.43659C9.13378 9.5473 9.24449 9.65801 9.24449 9.76872C9.24449 9.93479 9.13378 10.1009 8.857 10.1009H0.387494C0.110712 10.0455 0 10.2116 0 10.3776C0 10.5437 0.0553562 10.6544 0.166069 10.7651C0.830343 11.4848 1.93747 12.3705 3.5428 13.3669C4.9267 14.2526 6.6981 15.1936 8.08201 15.8579C8.30343 15.9686 8.41415 16.0793 8.41415 16.2454C8.41415 16.4115 8.30343 16.5222 8.02665 16.5222H4.09636C3.87494 16.5222 3.76422 16.6329 3.76422 16.799C3.76422 16.9097 3.81958 17.0204 3.93029 17.1311C4.81599 17.9614 6.25525 18.7918 8.13737 19.6221C10.6838 20.6739 13.2301 21.3382 16.1087 21.3382C21.5889 21.3382 23.9692 17.2418 23.9692 14.0312ZM16.8283 18.9579C14.1712 18.9579 11.9016 16.799 11.9016 14.0312C11.9016 11.3741 14.1158 9.21516 16.8283 9.21516C19.5961 9.21516 21.755 11.3741 21.755 14.0312C21.755 16.7436 19.5961 18.9579 16.8283 18.9579Z" fill="white"/>
</g>
<defs>
<clipPath id="clip0_1091_7200">
<rect width="108" height="14.3926" fill="white" transform="translate(0 6.94556)"/>
</clipPath>
</defs>
</svg>
