<svg width="108" height="28" viewBox="0 0 108 28" fill="none" xmlns="http://www.w3.org/2000/svg">
<path d="M31.9671 9.96369C31.9671 8.18061 30.2401 6.28686 27.2516 6.28686C23.8957 6.28686 20.2091 8.75858 19.6457 13.6897C19.07 18.67 22.1565 20.8835 25.2675 20.8835C28.3785 20.8835 30.0074 19.6661 31.6731 18.0429C30.2401 16.2352 28.3907 17.0714 28.0355 17.2559C27.6436 17.4526 27.1414 17.7232 26.1126 17.7232C24.9123 17.7232 23.6875 17.1821 23.6875 14.9317C31.3792 14.1693 31.9671 11.7468 31.9671 9.96369ZM28.158 10.2588C28.109 10.8122 27.8885 11.7591 23.9937 12.2878C24.8143 9.36114 26.382 9.13979 27.1047 9.13979C27.7783 9.13979 28.207 9.66856 28.158 10.2588ZM15.1262 10.7384C15.1262 10.7384 13.4727 15.9524 13.338 16.3828C13.289 15.9401 12.0765 6.58199 12.0765 6.58199C9.25943 6.58199 7.75294 8.59871 6.95682 10.7261C6.95682 10.7261 4.94816 15.9524 4.77669 16.3951C4.76444 15.9893 4.47049 10.7876 4.47049 10.7876C4.29902 8.18061 1.92292 6.59429 0 6.59429L2.32711 20.7728C5.27886 20.7605 6.87109 18.7561 7.70395 16.6287C7.70395 16.6287 9.4799 12.0173 9.55338 11.8083C9.56563 12.005 10.8272 20.7728 10.8272 20.7728C13.7912 20.7728 15.3834 18.8914 16.2408 16.8378L20.3928 6.59429C17.4655 6.59429 15.9223 8.59871 15.1262 10.7384ZM42.8433 6.26227C41.0183 6.26227 39.622 7.25833 38.4462 8.72169V8.70939L39.4996 0.1875C37.0745 0.1875 35.1026 2.3026 34.7229 5.45066L32.8857 20.6622C34.282 20.6622 35.764 20.2564 36.5601 19.2234C37.2704 20.1457 38.336 20.8835 39.916 20.8835C44.0068 20.8835 46.8116 16.1122 46.8116 11.6361C46.7871 7.55346 44.8152 6.26227 42.8433 6.26227ZM42.4636 13.579C42.0349 16.0753 40.6509 17.7724 39.3158 17.7724C37.9686 17.7724 37.3929 17.1698 37.3929 17.1698C37.6501 14.9809 37.8094 13.6405 38.2993 12.4846C38.7892 11.3287 39.9527 9.48411 41.1653 9.48411C42.3533 9.48411 42.8922 11.0704 42.4636 13.579ZM57.0264 6.59429H54.1726L54.1848 6.44672C54.3808 4.57756 54.8217 3.5938 56.2792 3.43393C57.2713 3.33556 57.7122 2.81908 57.8225 2.25341C57.9082 1.81072 58.1777 0.27358 58.1777 0.27358C52.4456 0.236688 50.6452 2.7207 50.1798 6.50821L50.1675 6.59429H50.1063C49.1754 6.59429 48.1466 7.65184 47.9751 8.99222L47.9139 9.48411H49.8246L48.2201 22.7896L47.7302 25.1752C47.7914 25.1752 47.8649 25.1875 47.9261 25.1875C50.6084 25.0891 52.3231 22.9617 52.7028 19.8752L53.9521 9.48411H54.8462C55.7281 9.48411 56.7569 8.59871 56.9406 7.12306L57.0264 6.59429ZM71.8708 6.34835C68.5761 6.34835 65.4652 8.78317 64.5098 12.6076C63.5545 16.432 64.9998 20.9573 69.8499 20.9573C74.6879 20.9573 77.4804 16.2475 77.4804 12.3247C77.4804 8.42655 74.8471 6.34835 71.8708 6.34835ZM73.2059 13.4561C73.0344 15.19 72.275 17.8215 70.1929 17.8215C68.0985 17.8215 68.3924 14.7473 68.6006 13.2839C68.8211 11.7222 69.6907 9.4964 71.5646 9.4964C73.2426 9.4964 73.4018 11.5008 73.2059 13.4561ZM93.7579 10.7384C93.7579 10.7384 92.1044 15.9524 91.9697 16.3828C91.9207 15.9401 90.7082 6.58199 90.7082 6.58199C87.8911 6.58199 86.3846 8.59871 85.5885 10.7261C85.5885 10.7261 83.5799 15.9524 83.4084 16.3951C83.3961 15.9893 83.1022 10.7876 83.1022 10.7876C82.9307 8.18061 80.5546 6.59429 78.6317 6.59429L80.9466 20.7728C83.8983 20.7605 85.4905 18.7561 86.3234 16.6287C86.3234 16.6287 88.0993 12.0173 88.1606 11.8083C88.1851 12.005 89.4344 20.7728 89.4344 20.7728C92.3984 20.7728 93.9906 18.8914 94.848 16.8378L99 6.59429C96.085 6.59429 94.5418 8.59871 93.7579 10.7384ZM59.7209 0.27358L57.3203 19.7153L56.8304 22.1132C56.8916 22.1132 56.9651 22.1255 57.0264 22.1255C59.6107 22.0886 61.4479 19.8137 61.7908 16.9484L63.1748 5.79498C63.5912 2.38868 61.5703 0.27358 59.7209 0.27358Z" fill="white"/>
</svg>
