<svg width="108" height="23" viewBox="0 0 108 23" fill="none" xmlns="http://www.w3.org/2000/svg">
<path d="M61.4007 8.17383H57.0214V8.64164C58.3924 8.64164 58.6133 8.93403 58.6133 10.6753V13.8071C58.6133 15.5419 58.3924 15.8603 57.0214 15.8603C55.9688 15.7108 55.2606 15.152 54.2795 14.0735L53.1554 12.852C54.6693 12.5856 55.4815 11.6304 55.4815 10.5519C55.4815 9.20692 54.3315 8.18032 52.1808 8.18032H47.873V8.64813C49.244 8.64813 49.4649 8.94052 49.4649 10.6818V13.8136C49.4649 15.5484 49.244 15.8668 47.873 15.8668V16.3346H52.7461V15.8668C51.3752 15.8668 51.1542 15.5484 51.1542 13.8136V12.9299H51.5701L54.286 16.3281H61.4072C64.9093 16.3281 66.4232 14.4698 66.4232 12.2412C66.4167 10.0061 64.8963 8.17383 61.4007 8.17383ZM51.1477 12.1632V8.90803H52.1483C53.2464 8.90803 53.7402 9.66823 53.7402 10.5454C53.7402 11.403 53.2529 12.1632 52.1483 12.1632H51.1477ZM61.4721 15.5614H61.3032C60.4195 15.5614 60.3026 15.3405 60.3026 14.2164V8.90803C60.3026 8.90803 61.3812 8.90803 61.4786 8.90803C64.0256 8.90803 64.4869 10.7663 64.4869 12.2087C64.4804 13.7031 64.0191 15.5614 61.4721 15.5614Z" fill="white"/>
<path d="M34.2356 13.0663L35.9249 8.07631C36.4122 6.63389 36.1913 6.21804 34.6254 6.21804V5.73074H39.2256V6.21804C37.6857 6.21804 37.3153 6.58191 36.7046 8.3687L33.9172 16.7374H33.5988L31.1038 9.07691L28.5568 16.7374H28.2385L25.5225 8.3687C24.9378 6.58191 24.5414 6.21804 23.125 6.21804V5.73074H28.5568V6.21804C27.1144 6.21804 26.7181 6.56241 27.2379 8.07631L28.8752 13.0663L31.3442 5.72424H31.812L34.2356 13.0663Z" fill="white"/>
<path d="M42.5586 16.6398C39.8686 16.6398 37.666 14.6581 37.666 12.2346C37.666 9.83706 39.8686 7.85535 42.5586 7.85535C45.2485 7.85535 47.4511 9.83706 47.4511 12.2346C47.4511 14.6581 45.2485 16.6398 42.5586 16.6398ZM42.5586 8.61554C40.3105 8.61554 39.5243 10.6492 39.5243 12.2346C39.5243 13.8525 40.3105 15.8537 42.5586 15.8537C44.8327 15.8537 45.6188 13.846 45.6188 12.2346C45.6188 10.6427 44.8327 8.61554 42.5586 8.61554Z" fill="white"/>
<path d="M72.4601 15.8342V16.3215H66.8594V15.8342C68.4967 15.8342 68.7956 15.4184 68.7956 12.9689V9.05092C68.7956 6.6014 68.5032 6.21155 66.8594 6.21155V5.72424H71.9274C74.4484 5.72424 75.8453 7.02373 75.8453 8.75854C75.8453 10.4479 74.4484 11.7668 71.9274 11.7668H70.5304V12.9689C70.5304 15.4184 70.8228 15.8342 72.4601 15.8342ZM71.9209 6.60789H70.5239V10.8637H71.9209C73.2918 10.8637 73.9286 9.90858 73.9286 8.75854C73.9286 7.58901 73.2918 6.60789 71.9209 6.60789Z" fill="white"/>
<path d="M92.6478 14.0214L92.5244 14.4632C92.3035 15.2689 92.0371 15.5613 90.2958 15.5613H89.9514C88.6779 15.5613 88.457 15.2689 88.457 13.5276V12.4036C90.3672 12.4036 90.5102 12.5725 90.5102 13.846H90.978V10.2009H90.5102C90.5102 11.4744 90.3607 11.6434 88.457 11.6434V8.90145H89.802C91.5368 8.90145 91.8097 9.19383 92.0306 9.99951L92.154 10.4673H92.5439L92.3749 8.16724H85.1823V8.63505C86.5533 8.63505 86.7742 8.92743 86.7742 10.6687V13.8005C86.7742 15.3924 86.5857 15.7887 85.5072 15.8472C84.4806 15.6912 83.7724 15.1325 82.8107 14.0669L81.6867 12.8454C83.2071 12.579 84.0128 11.6239 84.0128 10.5453C84.0128 9.20033 82.8627 8.17374 80.7121 8.17374H76.4043V8.64155C77.7753 8.64155 77.9962 8.93394 77.9962 10.6752V13.807C77.9962 15.5418 77.7753 15.8602 76.4043 15.8602V16.328H81.2774V15.8602C79.9064 15.8602 79.6855 15.5418 79.6855 13.807V12.9233H80.1013L82.8172 16.3215H92.8752L93.0247 14.0214H92.6478ZM79.679 12.1631V8.90794H80.6796C81.7777 8.90794 82.2715 9.66815 82.2715 10.5453C82.2715 11.403 81.7842 12.1631 80.6796 12.1631H79.679Z" fill="white"/>
<path d="M97.6176 16.6399C96.6365 16.6399 95.7788 16.1266 95.4149 15.8082C95.2915 15.9317 95.0706 16.2955 95.0251 16.6399H94.5573V13.2613H95.0446C95.2395 14.8791 96.3636 15.8277 97.8125 15.8277C98.5987 15.8277 99.2289 15.3859 99.2289 14.6517C99.2289 14.015 98.6636 13.5276 97.663 13.0598L96.2661 12.3971C95.285 11.9293 94.5508 11.1236 94.5508 10.045C94.5508 8.869 95.6488 7.8684 97.1692 7.8684C97.9749 7.8684 98.6636 8.16079 99.0795 8.50515C99.2029 8.40769 99.3264 8.13479 99.3978 7.84241H99.8657V10.7273H99.3524C99.1834 9.57722 98.5467 8.6221 97.2472 8.6221C96.565 8.6221 95.9282 9.01194 95.9282 9.6227C95.9282 10.2594 96.4415 10.6038 97.6176 11.1366L98.9625 11.7993C100.139 12.3646 100.6 13.2678 100.6 14.002C100.6 15.5613 99.2549 16.6399 97.6176 16.6399Z" fill="white"/>
<path d="M105.018 16.6399C104.037 16.6399 103.179 16.1266 102.815 15.8082C102.692 15.9317 102.471 16.2955 102.425 16.6399H101.958V13.2613H102.445C102.64 14.8791 103.764 15.8277 105.213 15.8277C105.999 15.8277 106.629 15.3859 106.629 14.6517C106.629 14.015 106.064 13.5276 105.063 13.0598L103.666 12.3971C102.685 11.9293 101.951 11.1236 101.951 10.045C101.951 8.869 103.049 7.8684 104.57 7.8684C105.375 7.8684 106.064 8.16079 106.48 8.50515C106.603 8.40769 106.727 8.13479 106.798 7.84241H107.266V10.7273H106.753C106.584 9.57722 105.947 8.6221 104.648 8.6221C103.965 8.6221 103.329 9.01194 103.329 9.6227C103.329 10.2594 103.842 10.6038 105.018 11.1366L106.363 11.7993C107.539 12.3646 108 13.2678 108 14.002C108 15.5613 106.655 16.6399 105.018 16.6399Z" fill="white"/>
<path d="M11.0131 0.662733C12.4101 0.662733 13.768 0.935624 15.0415 1.47491C15.6523 1.73481 16.2435 2.05318 16.8023 2.43003C17.3481 2.80039 17.8679 3.22272 18.3357 3.69703C18.8035 4.16484 19.2323 4.67814 19.6027 5.23042C19.9795 5.7827 20.2979 6.37396 20.5578 6.99121C21.0971 8.26471 21.37 9.62267 21.37 11.0196C21.37 12.4166 21.0971 13.7745 20.5578 15.048C20.2979 15.6588 19.9795 16.25 19.6027 16.8088C19.2323 17.3546 18.81 17.8744 18.3357 18.3422C17.8679 18.81 17.3546 19.2388 16.8023 19.6092C16.25 19.986 15.6588 20.3044 15.0415 20.5643C13.768 21.1036 12.4101 21.3765 11.0131 21.3765C9.61617 21.3765 8.25821 21.1036 6.98472 20.5643C6.37396 20.3044 5.78269 19.986 5.22391 19.6092C4.67813 19.2388 4.15835 18.8165 3.69053 18.3422C3.22272 17.8744 2.79389 17.3611 2.42354 16.8088C2.04669 16.2565 1.72832 15.6653 1.46842 15.048C0.929136 13.7745 0.656245 12.4166 0.656245 11.0196C0.656245 9.62267 0.929136 8.26471 1.46842 6.99121C1.72832 6.38046 2.04669 5.7892 2.42354 5.23042C2.79389 4.68463 3.21622 4.16484 3.69053 3.69703C4.15835 3.22922 4.67163 2.80039 5.22391 2.43003C5.77619 2.05318 6.36746 1.73481 6.98472 1.47491C8.25821 0.935624 9.61617 0.662733 11.0131 0.662733ZM11.0131 0C4.93154 0 0 4.93154 0 11.0131C0 17.0947 4.93154 22.0262 11.0131 22.0262C17.0947 22.0262 22.0262 17.0947 22.0262 11.0131C22.0262 4.93154 17.0947 0 11.0131 0Z" fill="white"/>
<path d="M1.83203 11.0131C1.83203 14.6452 3.9437 17.7834 7.00398 19.2713L2.62471 7.27711C2.11791 8.42066 1.83203 9.68115 1.83203 11.0131ZM17.2049 10.5518C17.2049 9.41476 16.7956 8.63507 16.4512 8.01782C15.9834 7.26412 15.5481 6.62087 15.5481 5.86718C15.5481 5.02251 16.1848 4.23632 17.088 4.23632C17.1269 4.23632 17.1659 4.24282 17.2049 4.24282C15.5741 2.74842 13.3974 1.83228 11.0064 1.83228C7.80315 1.83228 4.97678 3.47613 3.33943 5.97113C3.55384 5.97763 3.75527 5.98412 3.9307 5.98412C4.89232 5.98412 6.37373 5.86718 6.37373 5.86718C6.86754 5.84119 6.92601 6.5624 6.4322 6.62087C6.4322 6.62087 5.9319 6.67935 5.37962 6.70534L8.71929 16.6464L10.727 10.6233L9.29757 6.70534C8.80376 6.67935 8.33595 6.62087 8.33595 6.62087C7.84214 6.59488 7.90061 5.83469 8.39442 5.86718C8.39442 5.86718 9.90831 5.98412 10.8115 5.98412C11.7731 5.98412 13.2545 5.86718 13.2545 5.86718C13.7483 5.84119 13.8068 6.5624 13.313 6.62087C13.313 6.62087 12.8127 6.67935 12.2604 6.70534L15.5741 16.5684L16.5227 13.5666C16.958 12.2606 17.2049 11.3315 17.2049 10.5518ZM11.1753 11.8123L8.42042 19.8106C9.24559 20.051 10.1097 20.1875 11.0129 20.1875C12.0785 20.1875 13.105 20.0055 14.0602 19.6677C14.0342 19.6287 14.0147 19.5897 13.9952 19.5442L11.1753 11.8123ZM19.0632 6.60787C19.1022 6.90026 19.1217 7.21213 19.1217 7.55C19.1217 8.47913 18.9462 9.52522 18.4264 10.8377L15.626 18.94C18.355 17.3481 20.1872 14.3918 20.1872 11.0066C20.1872 9.41476 19.7844 7.91385 19.0632 6.60787Z" fill="white"/>
</svg>
